<?xml version="1.0" standalone="no"?>
<!DOCTYPE svg PUBLIC "-//W3C//DTD SVG 1.1//EN" "http://www.w3.org/Graphics/SVG/1.1/DTD/svg11.dtd" >
<!--
2013-9-30: Created.
-->
<svg>
<metadata>
Created by iconfont
</metadata>
<defs>

<font id="iconfont" horiz-adv-x="1024" >
  <font-face
    font-family="iconfont"
    font-weight="500"
    font-stretch="normal"
    units-per-em="1024"
    ascent="896"
    descent="-128"
  />
    <missing-glyph />
    
    <glyph glyph-name="dingwei1" unicode="&#58940;" d="M923.63904 471.17056c0 231.85792-184.29568 419.80544-411.64416 419.80544-227.34208 0-411.63904-187.94752-411.63904-419.80544 0-7.35872 0.7104-14.47168 1.08288-21.67552-0.33792-3.5584-1.08288-6.99008-1.08288-10.64192 0-258.38592 379.97952-551.06688 379.97952-551.06688s31.66336-24.21504 63.328 0c31.66336 24.24192 379.97952 292.68096 379.97952 551.06688 0 3.65184-0.74496 7.08352-1.08288 10.64192C922.92864 456.69888 923.63904 463.81184 923.63904 471.17056L923.63904 471.17056zM511.99488 309.664c-87.44832 0-158.31936 72.29312-158.31936 161.50656 0 89.15072 70.86976 161.4464 158.31936 161.4464 87.45344 0 158.32832-72.29568 158.32832-161.4464C670.3232 381.95712 599.44832 309.664 511.99488 309.664L511.99488 309.664zM511.99488 309.664"  horiz-adv-x="1024" />

    
    <glyph glyph-name="shezhi" unicode="&#59193;" d="M697.2 831H326.8L65 569.2v-370.3L326.8-63h370.3L959 198.8V569.2L697.2 831zM512 214c-93.9 0-170 76.1-170 170s76.1 170 170 170 170-76.1 170-170-76.1-170-170-170z"  horiz-adv-x="1024" />

    
    <glyph glyph-name="bianji" unicode="&#58922;" d="M1003.52 670.72c20.48 20.48 20.48 61.44 0 81.92L880.64 875.52c-30.72 30.72-61.44 30.72-81.92 0l-102.4-102.4 215.04-215.04 92.16 112.64zM0 87.04V-128h215.04l624.64 634.88-215.04 215.04L0 87.04z"  horiz-adv-x="1024" />

    
    <glyph glyph-name="lajitong" unicode="&#58915;" d="M216.127 38.815c0-54.49 44.135-98.624 98.625-98.624h394.496c54.49 0 98.625 44.134 98.625 98.624V630.561H216.127v-591.746z m641.058 739.682H684.592L635.28 827.809H388.72l-49.313-49.312H166.815v-98.624h690.37v98.624z"  horiz-adv-x="1024" />

    
    <glyph glyph-name="jian" unicode="&#59040;" d="M830.08 341.205333a18.901333 18.901333 0 0 1-22.058667-15.402666 322.901333 322.901333 0 0 0-318.464-266.410667c-178.389333 0-323.498667 145.109333-323.498666 323.498667a323.413333 323.413333 0 0 0 591.701333 180.906666 319.829333 319.829333 0 0 0 50.261333-123.818666 19.072 19.072 0 0 1 37.461334 6.656A356.949333 356.949333 0 0 1 789.333333 585.088a361.301333 361.301333 0 0 1-299.733333 159.36A361.429333 361.429333 0 0 1 128 382.890667c0-199.381333 162.218667-361.557333 361.557333-361.557334a360.874667 360.874667 0 0 1 355.925334 297.770667 19.029333 19.029333 0 0 1-15.36 22.101333M284.16 384a20.138667 20.138667 0 0 1 0-40.277333H720.213333a20.138667 20.138667 0 0 1 0 40.277333H284.16z"  horiz-adv-x="1024" />

    
    <glyph glyph-name="RectangleCopy" unicode="&#59041;" d="M830.122667 322.346667a18.944 18.944 0 0 1-22.058667-15.36 322.901333 322.901333 0 0 0-318.549333-266.709334c-178.346667 0-323.413333 145.152-323.413334 323.498667a323.328 323.328 0 0 0 323.456 323.498667 323.456 323.456 0 0 0 318.378667-266.112 19.029333 19.029333 0 0 1 37.504 6.698666 357.546667 357.546667 0 0 1-56.149333 138.112A361.386667 361.386667 0 0 1 489.514667 725.333333 361.429333 361.429333 0 0 1 128 363.776c0-199.338667 162.176-361.557333 361.514667-361.557333a360.832 360.832 0 0 1 356.010666 298.069333 18.986667 18.986667 0 0 1-15.402666 22.058667M655.786667 532.224a20.181333 20.181333 0 0 1-28.544 0l-139.946667-139.946667-139.946667 139.946667a20.181333 20.181333 0 0 1-28.458666-28.458667l139.946666-139.946666-139.946666-139.946667a20.181333 20.181333 0 0 1 28.458666-28.501333l139.946667 139.946666 139.946667-139.946666a20.053333 20.053333 0 0 1 28.501333 0 20.181333 20.181333 0 0 1 0 28.458666l-139.946667 139.946667 139.946667 139.946667a20.181333 20.181333 0 0 1 0 28.501333"  horiz-adv-x="1024" />

    
    <glyph glyph-name="RectangleCopy1" unicode="&#59042;" d="M837.461333 360.533333a19.072 19.072 0 0 1-22.314666-15.573333 326.314667 326.314667 0 0 0-321.792-269.226667c-180.266667 0-326.912 146.645333-326.912 326.912a326.826667 326.826667 0 0 0 597.930666 182.784 323.157333 323.157333 0 0 0 50.773334-125.056 19.242667 19.242667 0 0 1 37.888 6.698667 360.704 360.704 0 0 1-56.789334 139.946667A365.098667 365.098667 0 0 1 493.312 768 365.226667 365.226667 0 0 1 128 402.645333c0-201.472 163.882667-365.354667 365.354667-365.354666a364.672 364.672 0 0 1 359.68 300.885333 19.2 19.2 0 0 1-15.573334 22.314667M650.538667 506.496l-199.978667-200.021333-119.765333 119.765333a18.816 18.816 0 0 1-26.624-26.581333l132.224-132.181334c0.128-0.170667 0.341333-0.213333 0.469333-0.341333 0.170667-0.170667 0.213333-0.426667 0.426667-0.597333a18.773333 18.773333 0 0 1 26.581333 0l213.290667 213.333333a18.816 18.816 0 0 1-26.624 26.624"  horiz-adv-x="1024" />

    
    <glyph glyph-name="RectangleCopy2" unicode="&#59043;" d="M888.68161 38.430323l-175.091014 175.091014a21.331751 21.331751 0 0 1-30.163096 0c-0.85327-0.85327-1.279905-1.919858-1.919858-2.858454-100.98451-98.382037-259.650076-112.162348-377.699987-32.338935C166.175196 271.330383 129.228603 457.940543 221.424431 594.378424A295.444755 295.444755 0 0 0 357.307687 703.938298a301.716289 301.716289 0 0 0 280.811173-30.632395 301.716289 301.716289 0 0 0 133.238118-248.941537 294.719475 294.719475 0 0 0-22.355675-114.082205 21.331751 21.331751 0 0 1 39.421076-16.297458 336.572371 336.572371 0 0 1 25.598102 130.550317 344.337128 344.337128 0 0 1-152.01006 284.138927A344.294465 344.294465 0 0 1 341.522191 743.487365 337.681622 337.681622 0 0 1 186.056388 618.227321c-105.378851-155.935101-63.227311-369.167287 93.859705-475.271417a344.635773 344.635773 0 0 1 193.180339-59.046287 341.180029 341.180029 0 0 1 225.177966 84.601725l160.244116-160.244115a21.246424 21.246424 0 0 1 30.163096 0 21.331751 21.331751 0 0 1 0 30.163096"  horiz-adv-x="1024" />

    
    <glyph glyph-name="RectangleCopy3" unicode="&#59044;" d="M834.389333 156.458667h-56.917333v170.666666a18.944 18.944 0 1 1-37.930667 0v-170.666666H284.458667V384A227.797333 227.797333 0 0 0 512 611.541333a226.56 226.56 0 0 0 221.44-175.018666 18.986667 18.986667 0 0 1 36.949333 8.746666c-26.965333 113.92-124.074667 194.432-239.445333 202.624v58.453334a18.986667 18.986667 0 0 1-37.888 0V648.533333c-137.557333-9.813333-246.528-124.586667-246.528-264.533333v-227.541333H189.610667a18.986667 18.986667 0 0 1 0-37.973334h644.778666a18.986667 18.986667 0 0 1 0 37.973334M606.805333 80.597333H415.573333a18.986667 18.986667 0 0 1 0-37.930666h191.232a18.986667 18.986667 0 0 1 0 37.930666"  horiz-adv-x="1024" />

    
    <glyph glyph-name="RectangleCopy4" unicode="&#59045;" d="M517.632 343.850667c-108.714667 0-197.162667 85.546667-197.162667 190.72 0 38.314667 11.690667 75.306667 33.877334 106.922666C391.04 693.973333 452.138667 725.333333 517.632 725.333333c65.408 0 126.464-31.274667 163.2-83.712 7.765333-11.093333 14.250667-22.869333 19.413333-35.072a21.333333 21.333333 0 1 0-39.338666-16.64 147.285333 147.285333 0 0 1-15.018667 27.221334C617.130667 658.176 569.173333 682.666667 517.632 682.666667c-51.626667 0-99.584-24.533333-128.426667-65.621334a143.445333 143.445333 0 0 1-26.069333-82.432c0-81.664 69.290667-148.096 154.453333-148.096 63.402667 0 119.722667 36.437333 143.36 92.8a21.333333 21.333333 0 0 0 39.338667-16.512c-30.378667-72.277333-102.016-118.954667-182.656-118.954666M303.829333 268.544c-49.92 0-90.453333-41.088-90.453333-91.605333C213.333333 126.421333 253.866667 85.333333 303.786667 85.333333h416.341333C770.133333 85.333333 810.666667 126.421333 810.666667 176.938667c0 50.517333-40.533333 91.605333-90.453334 91.605333H303.786667zM720.213333 42.666667H303.829333C230.442667 42.666667 170.709333 102.912 170.709333 176.938667 170.666667 250.965333 230.4 311.210667 303.786667 311.210667h416.341333C793.6 311.210667 853.333333 250.965333 853.333333 176.938667 853.333333 102.912 793.6 42.666667 720.213333 42.666667z"  horiz-adv-x="1024" />

    
    <glyph glyph-name="RectangleCopy5" unicode="&#59046;" d="M832 425.088a21.333333 21.333333 0 0 1 21.333333 21.333333V675.84a21.034667 21.034667 0 0 1-17.365333 20.48c-1.536 0.810667-2.944 1.706667-4.736 2.133333L516.565333 767.701333c-2.048 0.426667-4.010667 0.256-5.973333 0.128h-0.042667c-0.896-0.085333-1.834667 0.128-2.688-0.042666-1.92 0.128-3.84 0.341333-5.845333-0.085334L192.682667 698.410667c-1.792-0.426667-3.2-1.322667-4.736-2.133334a21.034667 21.034667 0 0 1-17.28-20.48v-325.333333c0-1.408 0.554667-2.645333 0.810666-3.968 8.32-198.101333 173.44-324.906667 337.066667-348.288A24.106667 24.106667 0 0 1 511.573333-2.005333l0.426667 0.085333 0.426667-0.085333a24.106667 24.106667 0 0 1 3.029333 0.213333c144.512 20.693333 310.912 128.853333 334.976 317.568a21.333333 21.333333 0 0 1-42.368 5.376c-21.034667-165.461333-167.68-260.906667-296.021333-280.234667C363.178667 63.232 213.333333 180.181333 213.333333 362.026667V659.285333l296.064 66.389334L810.666667 659.285333V446.421333a21.333333 21.333333 0 0 1 21.333333-21.333333"  horiz-adv-x="1024" />

    
    <glyph glyph-name="RectangleCopy6" unicode="&#59047;" d="M830.08 322.133333a18.944 18.944 0 0 1-22.058667-15.445333 322.901333 322.901333 0 0 0-318.464-266.368c-178.389333 0-323.498667 145.066667-323.498666 323.498667a323.413333 323.413333 0 0 0 591.701333 180.906666 319.829333 319.829333 0 0 0 50.261333-123.818666 19.072 19.072 0 0 1 37.461334 6.656A356.949333 356.949333 0 0 1 789.333333 566.016 361.301333 361.301333 0 0 1 489.557333 725.333333 361.429333 361.429333 0 0 1 128 363.818667c0-199.381333 162.218667-361.557333 361.557333-361.557334a360.874667 360.874667 0 0 1 355.925334 297.770667 19.029333 19.029333 0 0 1-15.36 22.058667M509.696 323.84c69.12 9.941333 122.581333 68.906667 122.581333 140.672 0 78.72-64 142.72-142.72 142.72a142.848 142.848 0 0 1-142.72-142.72 20.138667 20.138667 0 0 1 40.277334 0c0 56.490667 45.994667 102.4 102.4 102.4 56.490667 0 102.485333-45.909333 102.485333-102.4 0-56.448-45.994667-102.4-102.442667-102.4-11.093333 0-20.138667-8.96-20.138666-20.181333 0-0.853333 0.384-1.621333 0.512-2.474667-0.128-0.853333-0.512-1.621333-0.512-2.56v-100.693333a20.138667 20.138667 0 0 1 40.277333 0V323.84zM489.557333 194.218667a20.138667 20.138667 0 0 1-20.138666-20.181334v-31.914666a20.138667 20.138667 0 0 1 40.277333 0v31.914666a20.138667 20.138667 0 0 1-20.138667 20.181334"  horiz-adv-x="1024" />

    
    <glyph glyph-name="RectangleCopy7" unicode="&#59048;" d="M723.712 468.181333a21.248 21.248 0 0 1-27.050667-13.312 204.8 204.8 0 0 0-88.96-109.653333 20.906667 20.906667 0 0 1-5.802666-5.290667 20.906667 20.906667 0 0 1-8.106667-16.384v-54.058666l-184.917333-23.04V323.498667a21.290667 21.290667 0 0 1-2.389334 9.429333 21.376 21.376 0 0 1-9.642666 13.226667 203.178667 203.178667 0 0 0-98.133334 174.677333 204.672 204.672 0 0 0 204.373334 204.458667 204.714667 204.714667 0 0 0 197.546666-151.296 21.290667 21.290667 0 1 1 41.130667 11.093333A247.338667 247.338667 0 0 1 503.082667 767.957333a247.381333 247.381333 0 0 1-247.04-247.125333c0-83.413333 41.130667-159.146667 110.165333-205.226667v-93.44a21.376 21.376 0 0 1 23.978667-21.162666l227.541333 28.458666a21.333333 21.333333 0 0 1 18.688 21.162667v62.848a247.04 247.04 0 0 1 100.608 127.616 21.333333 21.333333 0 0 1-13.312 27.050667M609.621333 172.373333l-215.125333-19.541333a21.376 21.376 0 0 1 1.92-42.624l1.962667 0.085333 215.125333 19.584a21.333333 21.333333 0 0 1 19.285333 23.168 20.992 20.992 0 0 1-23.168 19.328M548.309333 67.413333l-94.208-12.501333a21.333333 21.333333 0 1 1 5.589334-42.24l94.208 12.416a21.333333 21.333333 0 1 1-5.546667 42.282667"  horiz-adv-x="1024" />

    
    <glyph glyph-name="RectangleCopy8" unicode="&#59049;" d="M838.016 299.52a21.333333 21.333333 0 0 0 15.018667-26.154667 352.725333 352.725333 0 0 0-340.010667-259.84c-123.818667 0-236.629333 65.792-299.690667 167.637334v-146.304a21.333333 21.333333 0 1 0-42.666666 0v240.128a21.333333 21.333333 0 0 0 21.333333 21.333333c0.981333 0 1.834667-0.426667 2.730667-0.554667a20.906667 20.906667 0 0 0 20.565333-15.189333c37.674667-132.096 160.085333-224.384 297.728-224.384 139.52 0 262.4 93.866667 298.837333 228.309333a21.333333 21.333333 0 0 0 26.154667 15.018667z m-647.253333 144.042667a21.333333 21.333333 0 0 0-14.037334 26.709333 350.506667 350.506667 0 0 0 336.298667 247.210667 349.866667 349.866667 0 0 0 295.722667-162.090667V704a21.333333 21.333333 0 1 0 42.666666 0v-240.042667c0-11.818667-9.514667-21.333333-21.333333-21.333333-0.853333 0-1.578667 0.384-2.432 0.469333-1.152 0.085333-2.133333 0.426667-3.285333 0.682667-1.109333 0.298667-2.218667 0.469333-3.242667 0.938667a21.077333 21.077333 0 0 0-12.586667 13.226666 308.224 308.224 0 0 1-295.509333 216.874667 308.010667 308.010667 0 0 1-295.552-217.216 21.333333 21.333333 0 0 0-26.709333-14.037333z"  horiz-adv-x="1024" />

    
    <glyph glyph-name="RectangleCopy9" unicode="&#59050;" d="M676.394667 463.104a21.333333 21.333333 0 0 1-30.165334 0l-135.168-135.125333-133.333333 133.376a21.333333 21.333333 0 0 1-30.165333-30.165334l148.394666-148.48a21.418667 21.418667 0 0 1 30.208 0l150.229334 150.186667a21.333333 21.333333 0 0 1 0 30.208"  horiz-adv-x="1024" />

    
    <glyph glyph-name="RectangleCopy10" unicode="&#59051;" d="M872.746667 322.133333a18.858667 18.858667 0 0 1-22.058667-15.445333 322.901333 322.901333 0 0 0-318.464-266.368c-178.389333 0-323.498667 145.066667-323.498667 323.498667a323.413333 323.413333 0 0 0 591.701334 180.906666 319.829333 319.829333 0 0 0 50.261333-123.818666 19.072 19.072 0 0 1 37.461333 6.656A356.949333 356.949333 0 0 1 832 566.016 361.301333 361.301333 0 0 1 532.224 725.333333 361.429333 361.429333 0 0 1 170.666667 363.818667c0-199.381333 162.218667-361.557333 361.557333-361.557334a360.874667 360.874667 0 0 1 355.925333 297.770667 19.029333 19.029333 0 0 1-15.36 22.058667M532.224 484.693333a20.138667 20.138667 0 0 1-20.138667-20.181333v-322.133333a20.138667 20.138667 0 0 1 40.277334 0v322.133333a20.138667 20.138667 0 0 1-20.138667 20.181333M552.362667 585.386667a20.138667 20.138667 0 0 1-40.277334 0v-40.277334a20.138667 20.138667 0 0 1 40.277334 0v40.32z"  horiz-adv-x="1024" />

    
    <glyph glyph-name="RectangleCopy11" unicode="&#59052;" d="M738.816 387.157333a21.333333 21.333333 0 1 1-39.509333-16.085333A208.213333 208.213333 0 0 0 506.666667 84.48 208.213333 208.213333 0 0 0 298.666667 292.48c0 38.997333 11.221333 76.245333 31.573333 109.056l176.426667 264.277333 110.165333-165.034666a21.418667 21.418667 0 0 1 29.610667-5.973334 21.418667 21.418667 0 0 1 5.888 29.653334L527.872 710.826667c-0.682667 1.066667-1.706667 1.706667-2.56 2.56a20.437333 20.437333 0 0 1-6.954667 8.362666 21.333333 21.333333 0 0 1-29.610666-5.973333l-183.424-274.773333c-0.554667-0.597333-1.28-0.938667-1.792-1.621334-2.816-3.882667-4.864-8.149333-7.424-12.16l-2.517334-3.712c-0.213333-0.341333-0.213333-0.725333-0.426666-1.066666a248.362667 248.362667 0 0 1-37.12-130.005334A250.965333 250.965333 0 0 1 506.624 41.813333a250.965333 250.965333 0 0 1 232.149333 345.344M626.944 263.808a123.605333 123.605333 0 0 0-82.133333-85.333333 21.333333 21.333333 0 1 1 12.629333-40.789334 166.485333 166.485333 0 0 1 110.72 115.114667 21.333333 21.333333 0 0 1-15.104 26.112 21.589333 21.589333 0 0 1-26.112-15.104"  horiz-adv-x="1024" />

    
    <glyph glyph-name="RectangleCopy12" unicode="&#59053;" d="M490.666667 682.666667c80.128 0 153.984-29.653333 210.645333-79.146667L250.112 152.32A318.464 318.464 0 0 0 170.666667 362.666667C170.666667 539.136 314.197333 682.666667 490.666667 682.666667m338.56-368.469334a21.461333 21.461333 0 0 1-25.173334-16.554666C773.589333 149.888 641.792 42.666667 490.666667 42.666667a318.378667 318.378667 0 0 0-210.389334 79.488L731.52 573.397333a318.464 318.464 0 0 0 74.154667-154.026666 21.333333 21.333333 0 0 1 41.984 7.466666 360.96 360.96 0 0 1-98.816 190.677334c-0.512 0.64-0.768 1.408-1.322667 2.005333-0.469333 0.469333-1.109333 0.64-1.578667 1.066667A362.410667 362.410667 0 0 1 490.666667 725.333333C290.688 725.333333 128 562.645333 128 362.666667c0-199.978667 162.688-362.666667 362.666667-362.666667 171.306667 0 320.64 121.557333 355.114666 288.981333a21.290667 21.290667 0 0 1-16.554666 25.216"  horiz-adv-x="1024" />

    
    <glyph glyph-name="RectangleCopy13" unicode="&#59054;" d="M676.441173 270.208L526.169173 420.437333a21.418667 21.418667 0 0 1-30.208 0L347.566507 272a21.418667 21.418667 0 0 1 15.061333-36.437333 21.418667 21.418667 0 0 1 15.146667 6.229333l133.333333 133.376 135.125333-135.125333a21.248 21.248 0 0 1 30.208 0 21.333333 21.333333 0 0 1 0 30.165333"  horiz-adv-x="1024" />

    
    <glyph glyph-name="RectangleCopy14" unicode="&#59055;" d="M554.666667 490.666667c0-35.285333-28.714667-64-64-64S426.666667 455.381333 426.666667 490.666667 455.381333 554.666667 490.666667 554.666667s64-28.714667 64-64m-170.666667 0c0-58.837333 47.872-106.666667 106.666667-106.666667S597.333333 431.829333 597.333333 490.666667 549.461333 597.333333 490.666667 597.333333A106.794667 106.794667 0 0 1 384 490.666667M717.952 506.752c1.664-6.4 2.986667-12.970667 4.138667-19.584a21.333333 21.333333 0 1 1 42.069333 7.082667A277.162667 277.162667 0 0 1 490.666667 725.333333 277.674667 277.674667 0 0 1 213.333333 448c0-146.005333 113.493333-265.770667 256.853334-276.309333V85.333333H345.856a21.333333 21.333333 0 1 1 0-42.666666h298.666667a21.333333 21.333333 0 0 1 0 42.666666H512.853333v87.082667c108.16 8.789333 202.752 79.616 239.317334 183.125333a21.333333 21.333333 0 1 1-40.192 14.250667A235.221333 235.221333 0 0 0 490.666667 213.333333 234.965333 234.965333 0 0 0 256 448C256 577.365333 361.301333 682.666667 490.666667 682.666667a234.496 234.496 0 0 0 227.285333-175.914667"  horiz-adv-x="1024" />

    
    <glyph glyph-name="RectangleCopy15" unicode="&#59056;" d="M669.696 311.381333a20.821333 20.821333 0 0 1-27.093333-11.392 156.288 156.288 0 0 0-145.493334-96.853333c-86.442667 0-156.842667 69.504-156.842666 154.965333 0 31.061333 9.216 61.013333 26.709333 86.570667a157.184 157.184 0 0 0 130.133333 68.48c52.224 0 100.864-25.6 130.133334-68.352 6.058667-9.002667 11.264-18.602667 15.36-28.501333a20.906667 20.906667 0 0 1 27.093333-11.349334 20.693333 20.693333 0 0 1 11.392 27.050667A198.869333 198.869333 0 0 1 497.066667 554.666667a198.826667 198.826667 0 0 1-164.565334-86.656A194.261333 194.261333 0 0 1 298.666667 358.101333c0-108.330667 89.045333-196.522667 198.442666-196.522666a197.674667 197.674667 0 0 1 184.021334 122.794666 20.693333 20.693333 0 0 1-11.434667 27.008M765.226667 318.890667a18.816 18.816 0 0 1-10.410667-7.978667 18.346667 18.346667 0 0 1-4.053333-7.68c-6.826667-29.44-18.773333-57.258667-35.370667-82.773333a18.773333 18.773333 0 0 1 1.28-22.058667l27.306667-47.104-41.002667-41.002667-49.109333 28.288a18.773333 18.773333 0 0 1-14.634667 1.749334 18.474667 18.474667 0 0 1-9.386667-2.389334 264.192 264.192 0 0 0-78.933333-31.402666 19.114667 19.114667 0 0 1-16.128-13.866667l-14.634667-54.613333h-58.026666l-14.72 55.082666a18.944 18.944 0 0 1-16.298667 13.866667c-0.128 0-0.170667 0.085333-0.256 0.128a265.173333 265.173333 0 0 0-81.664 34.474667c-1.109333 0.682667-2.346667 0.896-3.498667 1.322666-0.725333 0.298667-1.365333 0.64-2.133333 0.853334a18.346667 18.346667 0 0 1-6.058667 0.426666l-0.853333-0.042666a18.688 18.688 0 0 1-9.045333-3.541334l-46.933334-27.093333-41.130666 41.002667 28.672 49.408a18.773333 18.773333 0 0 1-2.304 21.888c-0.170667 0.256-0.170667 0.512-0.298667 0.810666a258.432 258.432 0 0 0-31.488 76.586667c-0.213333 0.981333-0.853333 1.664-1.152 2.56a18.688 18.688 0 0 1-13.013333 13.184l-53.930667 14.634667v58.112l53.930667 14.634666a18.944 18.944 0 0 1 13.866666 16.256c0.128 0.426667 0.554667 0.597333 0.64 1.066667 6.826667 28.245333 18.261333 55.04 34.005334 79.616 0.810667 1.237333 1.066667 2.645333 1.578666 3.968 0.341333 0.938667 0.853333 1.792 1.024 2.773333 0.085333 0.426667 0.042667 0.810667 0.085334 1.194667a18.432 18.432 0 0 1-2.005334 12.586667l-28.330666 48.981333 41.088 41.045333 49.450666-28.629333c2.986667-1.706667 6.229333-2.56 9.514667-2.56 3.626667 0 7.082667 1.28 10.112 3.242667 1.066667 0.426667 2.133333 0.256 3.114667 0.853333a265.429333 265.429333 0 0 0 78.293333 31.786667 18.218667 18.218667 0 0 1 5.717333 2.56 17.450667 17.450667 0 0 1 4.821334 4.437333 18.133333 18.133333 0 0 1 1.834666 2.773333c0.853333 1.365333 2.176 2.218667 2.645334 3.882667l14.677333 55.125333h58.026667l14.677333-54.613333c0.426667-1.706667 1.92-2.602667 2.688-4.053333 0.512-0.853333 1.066667-1.706667 1.706667-2.474667a17.066667 17.066667 0 0 1 5.205333-4.608 18.773333 18.773333 0 0 1 5.546667-2.474667c29.44-6.4 57.344-17.706667 82.901333-33.621333 0.554667-0.341333 1.28-0.213333 1.834667-0.512a19.072 19.072 0 0 1 10.026666-3.072 19.029333 19.029333 0 0 1 9.472 2.56l49.450667 28.586667 41.045333-40.96-28.288-49.066667a18.56 18.56 0 0 1-0.426666-17.408c0.469333-1.28 0.725333-2.688 1.493333-3.882667 15.232-24.192 26.325333-50.474667 32.981333-78.08 0.256-1.109333 1.28-1.706667 1.706667-2.688a18.773333 18.773333 0 0 1 13.098667-14.506666l50.048-14.506667v-58.538667l-50.048-14.506666zM853.333333 402.901333c0 0.725333-0.341333 1.365333-0.426666 2.048a18.730667 18.730667 0 0 1-13.312 19.541334l-54.784 15.786666a295.978667 295.978667 0 0 1-30.421334 72.533334l30.549334 52.906666a18.730667 18.730667 0 0 1-4.266667 23.552c-0.426667 0.512-0.64 1.194667-1.152 1.706667l-56.96 56.917333c-0.554667 0.512-1.237333 0.768-1.834667 1.194667a18.773333 18.773333 0 0 1-23.509333 4.181333l-53.376-30.890666a301.013333 301.013333 0 0 1-75.093333 30.549333l-15.658667 58.325333a18.730667 18.730667 0 0 1-19.712 13.653334c-0.682667 0.085333-1.28 0.426667-2.005333 0.426666h-80.554667c-0.768 0-1.365333-0.341333-2.133333-0.426666a18.858667 18.858667 0 0 1-19.626667-13.696l-15.701333-58.922667a302.08 302.08 0 0 1-71.466667-29.269333l-53.589333 31.018666a18.858667 18.858667 0 0 1-23.552-4.181333c-0.554667-0.426667-1.28-0.64-1.792-1.194667L205.994667 591.744c-0.554667-0.512-0.725333-1.194667-1.194667-1.749333a18.688 18.688 0 0 1-4.224-23.552l30.506667-52.778667a295.338667 295.338667 0 0 1-30.976-73.386667l-58.069334-15.701333a18.773333 18.773333 0 0 1-13.653333-19.584c-0.042667-0.725333-0.384-1.365333-0.384-2.090667v-80.469333c0-0.725333 0.341333-1.365333 0.426667-2.090667a18.773333 18.773333 0 0 1 13.610666-19.626666l58.026667-15.744c6.826667-25.002667 16.64-48.981333 29.696-71.552l-30.464-52.48a18.688 18.688 0 0 1 4.181333-23.466667c0.426667-0.597333 0.64-1.28 1.194667-1.834667l56.96-56.917333c0.853333-0.768 1.877333-1.152 2.816-1.792a18.602667 18.602667 0 0 1 13.013333-6.101333 18.773333 18.773333 0 0 1 9.472 2.517333l52.821334 30.421333c23.210667-13.44 47.786667-23.808 73.6-30.72l15.701333-58.922666c2.261333-8.533333 9.941333-14.122667 18.346667-14.122667 0.725333 0 1.408 0.213333 2.090666 0.298667 0.469333-0.042667 0.853333-0.298667 1.28-0.298667h80.597334c0.469333 0 0.853333 0.256 1.322666 0.298667 0.682667-0.085333 1.365333-0.298667 2.005334-0.298667a19.072 19.072 0 0 1 18.346666 14.08l15.701334 58.24a303.744 303.744 0 0 1 73.088 29.312l54.784-31.573333c2.986667-1.706667 6.229333-2.56 9.429333-2.56a18.773333 18.773333 0 0 1 13.098667 6.144c0.896 0.64 1.962667 0.981333 2.730666 1.834666l57.002667 56.874667c0.554667 0.554667 0.725333 1.194667 1.194667 1.706667a18.773333 18.773333 0 0 1 4.181333 23.637333l-30.933333 53.333333c13.781333 23.253333 24.32 47.957333 31.317333 73.898667l54.954667 15.914667a18.730667 18.730667 0 0 1 13.312 19.541333c0.085333 0.725333 0.426667 1.322667 0.426666 2.048v80.469333z"  horiz-adv-x="1024" />

    
    <glyph glyph-name="RectangleCopy16" unicode="&#59057;" d="M829.013333 323.456a20.096 20.096 0 0 1-23.338666-16.298667 320.64 320.64 0 0 0-316.16-264.490666c-177.152 0-321.237333 144.085333-321.237334 321.194666A321.066667 321.066667 0 0 0 489.472 685.056a321.28 321.28 0 0 0 316.202667-264.533333 20.181333 20.181333 0 0 1 39.68 7.082666A361.386667 361.386667 0 0 1 489.472 725.333333 361.386667 361.386667 0 0 1 128 363.861333C128 164.522667 290.176 2.389333 489.472 2.389333a360.789333 360.789333 0 0 1 355.84 297.728 20.096 20.096 0 0 1-16.298667 23.338667M638.378667 352.213333a21.333333 21.333333 0 0 1 0 42.666667h-124.885334v23.893333l103.765334 97.92a21.333333 21.333333 0 1 1-29.312 31.061334l-98.133334-92.586667-98.133333 92.586667a21.333333 21.333333 0 0 1-29.269333-31.061334l108.416-102.314666v-19.498667H339.712a21.333333 21.333333 0 0 1 0-42.666667h131.114667v-59.989333H339.712a21.333333 21.333333 0 0 1 0-42.666667h131.114667v-93.781333a21.333333 21.333333 0 1 1 42.666666 0V249.6h124.885334a21.333333 21.333333 0 1 1 0 42.666667h-124.885334v59.989333h124.885334z"  horiz-adv-x="1024" />

    
    <glyph glyph-name="RectangleCopy17" unicode="&#59058;" d="M668.376747 459.861333a21.333333 21.333333 0 0 1 29.866666-4.650666l145.066667 105.728a21.333333 21.333333 0 0 1-25.130667 34.56L756.995413 550.826667c-55.210667 81.493333-148.053333 131.84-246.912 131.84a298.666667 298.666667 0 0 1-246.442666-130.261334L204.632747 595.456a21.376 21.376 0 0 1-25.130667-34.517333l62.72-45.653334A296.192 296.192 0 0 1 211.416747 384c0-157.866667 123.306667-287.274667 278.656-297.685333v-69.888a21.333333 21.333333 0 1 1 42.666666 0v70.058666c152.192 11.605333 274.005333 138.752 275.968 293.717334a21.376 21.376 0 0 1-21.077333 21.589333h-0.256a21.333333 21.333333 0 0 1-21.333333-21.077333c-1.664-131.712-104.362667-240.085333-233.301334-251.562667v66.816a21.333333 21.333333 0 1 1-42.666666 0v-66.986667c-131.84 10.282667-235.946667 120.576-235.946667 255.018667 0 37.717333 8.362667 73.472 23.082667 105.728l47.402666-34.517333a21.461333 21.461333 0 0 1 29.824 4.650666 21.376 21.376 0 0 1-4.693333 29.866667l-51.626667 37.632A256 256 0 0 0 510.040747 640c86.613333 0 164.864-42.666667 212.565333-114.176l-49.578667-36.138667a21.333333 21.333333 0 0 1-4.693333-29.824"  horiz-adv-x="1024" />

    
    <glyph glyph-name="Rectangle" unicode="&#59059;" d="M830.08 341.205333a18.901333 18.901333 0 0 1-22.058667-15.402666 322.901333 322.901333 0 0 0-318.464-266.410667c-178.389333 0-323.498667 145.109333-323.498666 323.498667a323.413333 323.413333 0 0 0 591.701333 180.906666 319.829333 319.829333 0 0 0 50.261333-123.818666 19.072 19.072 0 0 1 37.461334 6.656A356.949333 356.949333 0 0 1 789.333333 585.088a361.301333 361.301333 0 0 1-299.733333 159.36A361.429333 361.429333 0 0 1 128 382.890667c0-199.381333 162.218667-361.557333 361.557333-361.557334a360.874667 360.874667 0 0 1 355.925334 297.770667 19.029333 19.029333 0 0 1-15.36 22.101333M284.16 384a20.138667 20.138667 0 0 1 0-40.277333H720.213333a20.138667 20.138667 0 0 1 0 40.277333H284.16z"  horiz-adv-x="1024" />

    
    <glyph glyph-name="RectangleCopy18" unicode="&#59060;" d="M799.829093 586.666071A180.607849 180.607849 0 0 1 671.146534 639.99936c-48.597293 0-94.293255-18.943984-128.682559-53.333289L490.496018 534.698114 438.613394 586.666071A180.607849 180.607849 0 0 1 309.888168 639.99936c-48.597293 0-94.293255-18.943984-128.682559-53.333289a182.186515 182.186515 0 0 1 0-257.365119l293.461089-294.911754a21.205316 21.205316 0 0 1 30.122641-0.085333l140.543883 139.007884a21.333316 21.333316 0 0 1-29.994641 30.293308l-125.397229-124.074563-278.570435 279.8931a139.519884 139.519884 0 0 0 0 197.077169c52.650623 52.650623 144.341213 52.650623 197.034503 0L475.434697 489.386152a21.333316 21.333316 0 0 1 30.165308 0l67.029278 67.029278c52.693289 52.693289 144.38388 52.693289 197.034502 0 26.367978-26.325311 40.831966-61.354616 40.831966-98.474585 0-37.205302-14.463988-72.19194-40.831966-98.559918l-33.237305-33.237305a21.333316 21.333316 0 1 1 30.165308-30.165309l33.279972 33.279973a180.693183 180.693183 0 0 1 53.333289 128.682559c0 48.597293-18.943984 94.293255-53.333289 128.682559"  horiz-adv-x="1024" />

    
    <glyph glyph-name="RectangleCopy19" unicode="&#59061;" d="M871.722667 323.498667a19.968 19.968 0 0 1-23.381334-16.298667 320.64 320.64 0 0 0-316.16-264.533333C354.986667 42.666667 210.901333 186.709333 210.901333 363.861333A321.152 321.152 0 0 0 532.138667 685.056a321.066667 321.066667 0 0 0 316.202666-264.448 20.181333 20.181333 0 0 1 39.68 7.082667 357.504 357.504 0 0 1-56.192 138.368A361.301333 361.301333 0 0 1 532.138667 725.333333 361.386667 361.386667 0 0 1 170.666667 363.861333C170.666667 164.522667 332.842667 2.389333 532.138667 2.389333a360.917333 360.917333 0 0 1 355.882666 297.728 20.181333 20.181333 0 0 1-16.298666 23.381334M531.712 111.658667a21.333333 21.333333 0 0 1 21.333333 21.333333v209.493333h209.536a21.333333 21.333333 0 0 1 0 42.666667h-209.493333V594.773333a21.333333 21.333333 0 0 1-42.666667 0v-209.578666H300.8a21.333333 21.333333 0 0 1 0-42.666667h209.578667v-209.536a21.333333 21.333333 0 0 1 21.333333-21.333333"  horiz-adv-x="1024" />

    
    <glyph glyph-name="RectangleCopy20" unicode="&#59062;" d="M869.333333 565.845333a360.874667 360.874667 0 0 1-592.554666 9.216V623.189333a20.138667 20.138667 0 0 1-40.32 0v-118.784c0-3.626667 1.194667-6.826667 2.858666-9.770666a20.053333 20.053333 0 0 1 10.026667-10.325334c10.282667-4.437333 22.058667 0 26.624 10.197334a321.109333 321.109333 0 0 0 293.546667 190.506666 321.109333 321.109333 0 0 0 321.152-321.152c0-177.109333-144.085333-321.194667-321.152-321.194666a320.597333 320.597333 0 0 0-316.16 264.490666 20.138667 20.138667 0 1 1-39.68-7.082666 360.874667 360.874667 0 0 1 355.84-297.728c199.338667 0 361.472 162.176 361.472 361.514666 0 72.362667-21.333333 142.208-61.653334 201.984"  horiz-adv-x="1024" />

    
    <glyph glyph-name="RectangleCopy21" unicode="&#59063;" d="M676.44928 207.957333L542.17728 342.186667 675.510613 475.562667a21.290667 21.290667 0 0 1 0 30.165333 21.290667 21.290667 0 0 1-30.165333 0L512.011947 372.394667 378.635947 505.728a21.333333 21.333333 0 1 1-30.208-30.165333L481.846613 342.186667 347.574613 207.957333a21.333333 21.333333 0 0 1 30.208-30.165333L512.011947 312.021333l134.229333-134.229333a21.248 21.248 0 0 1 30.208 0 21.333333 21.333333 0 0 1 0 30.165333"  horiz-adv-x="1024" />

    
    <glyph glyph-name="RectangleCopy22" unicode="&#59064;" d="M876.672 407.338667h-193.408a21.333333 21.333333 0 1 1 0-42.666667h72.362667a244.906667 244.906667 0 0 0-220.288-224.128v74.197333a21.333333 21.333333 0 1 1-42.666667 0v-74.368A244.693333 244.693333 0 0 0 268.373333 364.672h74.410667a21.333333 21.333333 0 1 1 0 42.666667H268.544A244.864 244.864 0 0 0 492.672 627.626667v-74.410667a21.333333 21.333333 0 0 1 42.666667 0V627.157333a243.712 243.712 0 0 0 181.76-109.781333 21.376 21.376 0 0 1 35.754666 23.338667 286.208 286.208 0 0 1-217.514666 129.109333v76.8a21.333333 21.333333 0 0 1-42.666667 0v-76.288a287.402667 287.402667 0 0 1-266.794667-262.997333H149.333333a21.333333 21.333333 0 1 1 0-42.666667h76.373334a287.274667 287.274667 0 0 1 266.965333-266.965333v-76.373334a21.333333 21.333333 0 0 1 42.666667 0v76.544a287.402667 287.402667 0 0 1 262.954666 266.794667h78.378667a21.333333 21.333333 0 0 1 0 42.666667M553.002667 384a39.168 39.168 0 1 0-78.293334 0.042667 39.168 39.168 0 0 0 78.293334-0.042667m-120.874667 0c0-45.098667 36.693333-81.792 81.749333-81.792A81.92 81.92 0 0 1 595.669333 384a81.92 81.92 0 0 1-81.792 81.792c-45.098667 0-81.749333-36.693333-81.749333-81.792"  horiz-adv-x="1024" />

    
    <glyph glyph-name="RectangleCopy23" unicode="&#59065;" d="M871.722667 323.456a20.053333 20.053333 0 0 1-23.381334-16.298667A320.597333 320.597333 0 0 0 532.138667 42.666667c-177.109333 0-321.194667 144.085333-321.194667 321.194666a321.109333 321.109333 0 0 0 587.52 179.584c10.410667-15.402667 19.584-31.872 27.178667-48.938666 4.522667-10.154667 16.384-14.762667 26.581333-10.154667a19.797333 19.797333 0 0 1 10.069333 10.24 19.84 19.84 0 0 1 2.901334 9.813333V623.189333a20.181333 20.181333 0 0 1-40.32 0v-48.170666a360.789333 360.789333 0 0 1-592.554667-9.173334A359.68 359.68 0 0 1 170.666667 363.861333c0-199.338667 162.176-361.472 361.472-361.472a360.874667 360.874667 0 0 1 355.882666 297.685334 20.181333 20.181333 0 0 1-16.298666 23.381333"  horiz-adv-x="1024" />

    
    <glyph glyph-name="RectangleCopy24" unicode="&#59066;" d="M886.866522 718.670983a21.37584 21.37584 0 0 1-30.122441 0.853327l-149.033549-140.628278A340.733444 340.733444 0 0 1 507.733365 643.919544a340.90411 340.90411 0 0 1-197.843849-63.359525L163.97061 718.286986a21.333173 21.333173 0 0 1-29.269114-31.018434L276.567099 553.381556A339.453454 339.453454 0 0 1 166.317259 302.460772c0-188.243922 153.172185-341.416106 341.458773-341.416107a340.90411 340.90411 0 0 1 330.962851 257.235405 21.333173 21.333173 0 1 1-41.386356 10.538587 298.323096 298.323096 0 0 0-289.576495-225.107645c-164.734764 0-298.792426 133.972329-298.792426 298.74976A298.664427 298.664427 0 0 0 507.733365 601.253197a298.792426 298.792426 0 0 0 292.563139-237.651551 21.247841 21.247841 0 1 1 41.727687 8.661269 338.429462 338.429462 0 0 1-51.199616 121.172424 342.397432 342.397432 0 0 1-50.004958 58.026232l145.065579 137.044305a21.333173 21.333173 0 0 1 0.938659 30.165107"  horiz-adv-x="1024" />

    
    <glyph glyph-name="RectangleCopy25" unicode="&#59067;" d="M821.204053 348.330667l-32-32.042667-241.792 241.706667 32.042667 32a171.093333 171.093333 0 0 0 241.749333 0 171.093333 171.093333 0 0 0 0-241.664M220.79872 582.570667c64.469333 64.554667 177.109333 64.554667 241.706667 0l296.533333-296.448-36.181333-36.138667-127.957334 127.914667a21.333333 21.333333 0 0 1-30.165333-30.165334l128-127.914666-36.693333-36.608L528.12672 311.04a21.333333 21.333333 0 0 1-30.165333-30.165333l127.914666-127.914667-39.338666-39.296-127.914667 127.914667a21.333333 21.333333 0 0 1-30.165333-30.165334l127.914666-127.914666-39.125333-39.125334-296.448 296.448a171.136 171.136 0 0 0 0 241.749334m630.613333 37.546666a213.845333 213.845333 0 0 1-302.08 0l-32.085333-32-24.576 24.618667A212.352 212.352 0 0 1 341.63072 675.328a212.181333 212.181333 0 0 1-150.997333-62.549333 213.845333 213.845333 0 0 1 0-302.08l308.053333-308.053334 0.426667-0.298666c0.853333-1.28 1.408-2.645333 2.56-3.754667a21.248 21.248 0 0 1 30.122666 0l319.573334 319.573333a213.888 213.888 0 0 1 0 302.037334"  horiz-adv-x="1024" />

    
    <glyph glyph-name="RectangleCopy26" unicode="&#59068;" d="M760.789333 42.666667H263.168A92.629333 92.629333 0 0 0 170.666667 135.210667V632.832C170.666667 683.818667 212.181333 725.333333 263.168 725.333333h497.621333c51.029333 0 92.586667-41.514667 92.586667-92.501333V447.573333a21.333333 21.333333 0 1 0-42.666667 0V632.832A49.92 49.92 0 0 1 760.746667 682.666667H263.168A49.92 49.92 0 0 1 213.333333 632.832v-497.621333A49.92 49.92 0 0 1 263.168 85.333333h497.621333a49.92 49.92 0 0 1 49.92 49.877334V319.573333a21.333333 21.333333 0 0 0 42.666667 0v-184.362666A92.629333 92.629333 0 0 0 760.746667 42.666667M511.573333 340.010667c-82.346667 0-149.333333 66.432-149.333333 148.053333V575.573333a21.333333 21.333333 0 0 0 42.666667 0v-87.466666c0-58.112 47.829333-105.386667 106.666666-105.386667 58.752 0 106.666667 47.274667 106.666667 105.386667V575.573333a21.333333 21.333333 0 0 0 42.666667 0v-87.466666c0-81.621333-66.986667-148.053333-149.333334-148.053334"  horiz-adv-x="1024" />

    
    <glyph glyph-name="RectangleCopy27" unicode="&#59069;" d="M829.525333 384a21.333333 21.333333 0 0 1 21.333334 21.333333V596.992C850.858667 644.224 813.653333 682.666667 767.829333 682.666667h-97.024A128.298667 128.298667 0 0 1 550.4 768a128.512 128.512 0 0 1-120.234667-85.333333H336.554667c-45.781333 0-83.029333-38.442667-83.029334-85.674667v-511.317333c0-47.232 37.248-85.674667 83.029334-85.674667h431.274666c45.781333 0 83.029333 38.442667 83.029334 85.674667V277.333333a21.333333 21.333333 0 0 1-42.666667 0v-191.658666c0-23.722667-18.090667-43.008-40.362667-43.008H336.554667c-22.272 0-40.362667 19.285333-40.362667 43.008V596.992c0 23.722667 18.090667 43.008 40.362667 43.008H443.733333a20.992 20.992 0 0 1 12.842667 4.736 20.992 20.992 0 0 1 10.538667 13.781333A85.802667 85.802667 0 0 0 550.4 725.333333c40.448 0 75.605333-28.714667 83.669333-68.266666a21.333333 21.333333 0 0 1 20.906667-17.066667c0.853333 0 1.706667 0.170667 2.56 0.256 0.469333 0 0.853333-0.256 1.322667-0.256h108.970666c22.272 0 40.362667-19.285333 40.362667-43.008V405.333333a21.333333 21.333333 0 0 1 21.333333-21.333333M445.525333 448h213.333334a21.333333 21.333333 0 0 1 0 42.666667h-213.333334a21.333333 21.333333 0 0 1 0-42.666667M445.525333 320h213.333334a21.333333 21.333333 0 0 1 0 42.666667h-213.333334a21.333333 21.333333 0 0 1 0-42.666667M447.317333 192h213.333334a21.333333 21.333333 0 0 1 0 42.666667h-213.333334a21.333333 21.333333 0 0 1 0-42.666667"  horiz-adv-x="1066" />

    
    <glyph glyph-name="RectangleCopy28" unicode="&#59070;" d="M507.050667 725.333333c85.546667 0 155.178667-61.696 155.178666-137.514666v-92.544H351.872V587.818667C351.872 663.637333 421.546667 725.333333 507.050667 725.333333m276.309333-407.978666a21.333333 21.333333 0 0 1 21.333333 21.333333V396.842667c0 52.010667-44.245333 94.293333-99.797333 97.792V587.818667C704.896 687.189333 616.149333 768 507.050667 768 397.952 768 309.205333 687.189333 309.205333 587.818667v-93.013334C252.629333 492.330667 207.36 449.536 207.36 396.842667v-255.701334C207.36 86.826667 255.317333 42.666667 314.24 42.666667h383.488C756.693333 42.666667 804.693333 86.826667 804.693333 141.141333v69.546667a21.333333 21.333333 0 0 1-42.666666 0v-69.546667c0-30.805333-28.842667-55.808-64.298667-55.808H314.24C278.826667 85.333333 250.026667 110.336 250.026667 141.141333V396.842667c0 30.762667 28.8 55.765333 64.213333 55.765333h383.488c35.456 0 64.298667-25.002667 64.298667-55.765333v-58.154667a21.333333 21.333333 0 0 1 21.333333-21.333333"  horiz-adv-x="1024" />

    
    <glyph glyph-name="RectangleCopy29" unicode="&#59071;" d="M829.525333 383.104a21.333333 21.333333 0 0 1 21.333334 21.333333V682.325333C850.858667 729.557333 813.653333 768 767.829333 768H422.4a21.162667 21.162667 0 0 1-15.146667-6.4c-0.298667-0.256-0.682667-0.341333-0.938666-0.597333L259.754667 614.442667a21.077333 21.077333 0 0 1-5.973334-16.085334c-0.085333-0.341333-0.256-0.64-0.256-1.024v-512.554666c0-47.232 37.248-85.674667 83.029334-85.674667h431.274666c45.781333 0 83.029333 38.442667 83.029334 85.674667v191.658666a21.333333 21.333333 0 0 1-42.666667 0v-191.658666c0-23.722667-18.090667-43.008-40.362667-43.008H336.554667c-22.272 0-40.362667 19.285333-40.362667 43.008V590.549333L431.018667 725.333333h336.853333c22.229333 0 40.32-19.285333 40.32-43.008v-277.888a21.333333 21.333333 0 0 1 21.333333-21.333333M445.525333 490.666667h213.333334a21.333333 21.333333 0 0 1 0 42.666666h-213.333334a21.333333 21.333333 0 0 1 0-42.666666M445.525333 362.666667h213.333334a21.333333 21.333333 0 0 1 0 42.666666h-213.333334a21.333333 21.333333 0 0 1 0-42.666666M447.317333 234.666667h213.333334a21.333333 21.333333 0 0 1 0 42.666666h-213.333334a21.333333 21.333333 0 0 1 0-42.666666"  horiz-adv-x="1066" />

    
    <glyph glyph-name="RectangleCopy30" unicode="&#59072;" d="M827.997013 182.357333H247.17568c-43.050667 0-78.08 36.949333-78.08 82.389334s35.029333 82.432 78.08 82.432H737.92768c65.322667 0 118.485333 56.106667 118.485333 125.056C856.413013 541.226667 803.250347 597.333333 737.885013 597.333333H148.23168A20.778667 20.778667 0 0 1 128.00768 576c0-11.818667 9.045333-21.333333 20.224-21.333333h589.653333c43.093333 0 78.08-36.992 78.08-82.432s-34.986667-82.346667-78.08-82.346667H247.17568c-65.28 0-118.485333-56.149333-118.485333-125.141333 0-68.949333 53.162667-125.013333 118.485333-125.013334h580.821333a20.821333 20.821333 0 0 1 20.224 21.333334c0 11.733333-9.088 21.333333-20.224 21.333333"  horiz-adv-x="1024" />

    
    <glyph glyph-name="RectangleCopy31" unicode="&#59073;" d="M394.666667 106.666667a32 32 0 1 1 0.042666-64 32 32 0 0 1 0 64M672 106.666667a32 32 0 1 1 0.042667-64 32 32 0 0 1 0 64M849.578667 382.762667a21.248 21.248 0 0 1-27.178667-13.098667A169.258667 169.258667 0 0 0 663.210667 256H311.893333l-26.282666 341.333333h377.6a169.173333 169.173333 0 0 0 159.232-113.877333 21.333333 21.333333 0 1 1 40.32 14.08A211.968 211.968 0 0 1 663.210667 640H282.325333L277.290667 705.578667c-0.085333 1.28-0.682667 2.261333-0.938667 3.413333C276.010667 710.314667 275.797333 711.68 275.2 712.96 274.602667 714.282667 273.706667 715.349333 272.853333 716.501333 272.085333 717.525333 271.36 718.634667 270.464 719.530667 269.44 720.469333 268.202667 721.109333 267.008 721.834667 265.813333 722.56 264.832 723.328 263.552 723.797333 262.229333 724.309333 260.821333 724.394667 259.413333 724.650667 258.261333 724.821333 257.237333 725.333333 256 725.333333h-42.666667a21.333333 21.333333 0 0 1 0-42.666666h22.912l41.173334-534.997334c0.085333-1.365333 0.682667-2.517333 1.024-3.754666 0.298667-1.152 0.426667-2.346667 0.938666-3.413334a20.437333 20.437333 0 0 1 2.645334-3.925333c0.64-0.853333 1.152-1.834667 1.92-2.56 1.237333-1.194667 2.773333-2.005333 4.266666-2.901333 0.810667-0.426667 1.493333-1.109333 2.389334-1.493334A21.248 21.248 0 0 1 298.666667 128h469.333333a21.290667 21.290667 0 1 1 0 42.666667H318.421333l-3.285333 42.666666h348.074667a211.968 211.968 0 0 1 199.466666 142.250667 21.333333 21.333333 0 0 1-13.098666 27.178667"  horiz-adv-x="1066" />

    
    <glyph glyph-name="RectangleCopy32" unicode="&#59074;" d="M809.429333 266.112h-258.304v152.149333h258.304a22.528 22.528 0 1 1 0 45.056h-258.304V535.594667l205.056 193.450666a22.570667 22.570667 0 0 1-30.933333 32.853334l-201.088-189.866667-201.130667 189.866667a22.570667 22.570667 0 0 1-30.933333-32.853334l212.053333-200.106666c0.597333-0.554667 1.322667-0.768 1.92-1.237334v-64.384H235.861333a22.528 22.528 0 1 1 0-45.056h270.208v-152.149333H235.861333a22.528 22.528 0 1 1 0-45.056h270.208v-198.528a22.528 22.528 0 1 1 45.056 0v198.528h258.304a22.570667 22.570667 0 0 1 0 45.056"  horiz-adv-x="1024" />

    
    <glyph glyph-name="RectangleCopy33" unicode="&#59075;" d="M886.348599 403.187606L549.460459 719.340229A22.27148 22.27148 0 0 1 532.052865 725.228091a22.57014 22.57014 0 0 1-17.364928-5.845197L177.799798 403.187606a22.612806 22.612806 0 0 1 30.932612-32.937898l7.125167 6.655844v-274.425597c0-55.465372 45.268277-100.605653 100.904312-100.605652h430.667284a100.861647 100.861647 0 0 1 100.904313 100.605652V160.846594a22.612806 22.612806 0 0 1-45.182946 0v-58.366639c0-30.591286-25.044749-55.465372-55.721367-55.465372H316.761889c-30.719283 0-55.721367 24.874086-55.721367 55.465372V419.315229L532.095531 673.687961l271.055009-254.372732v-123.00513a22.57014 22.57014 0 1 1 45.182946 0v80.638119l7.082501-6.69851a22.57014 22.57014 0 1 1 30.932612 32.937898"  horiz-adv-x="1024" />

    
    <glyph glyph-name="RectangleCopy34" unicode="&#59076;" d="M213.333333 554.666667v19.541333c0 35.328 28.714667 64 64 64h62.208v-23.082667a21.333333 21.333333 0 1 1 42.666667 0v23.082667h259.584v-23.082667a21.333333 21.333333 0 1 1 42.666667 0v23.082667h65.749333a64 64 0 0 0 64-64V554.666667H213.333333z m622.208-128a21.333333 21.333333 0 0 1 21.333334 21.333333V574.208c0 58.837333-47.829333 106.666667-106.666667 106.666667h-65.749333V704a21.333333 21.333333 0 0 1-42.666667 0v-23.125333H382.208V704a21.333333 21.333333 0 1 1-42.666667 0v-23.125333H277.333333a106.794667 106.794667 0 0 1-106.666666-106.666667V149.333333C170.666667 90.538667 218.538667 42.666667 277.333333 42.666667h472.874667c58.837333 0 106.666667 47.872 106.666667 106.666666v170.666667a21.333333 21.333333 0 1 1-42.666667 0v-170.666667c0-35.285333-28.672-64-64-64H277.333333c-35.285333 0-64 28.714667-64 64V512h600.874667v-64a21.333333 21.333333 0 0 1 21.333333-21.333333z"  horiz-adv-x="1024" />

    
    <glyph glyph-name="RectangleCopy35" unicode="&#59077;" d="M853.333333 426.24a21.333333 21.333333 0 0 1 21.333334 21.333333V632.832A92.586667 92.586667 0 0 1 782.122667 725.333333H284.501333A92.586667 92.586667 0 0 1 192 632.832v-497.621333c0-51.029333 41.514667-92.586667 92.501333-92.586667h497.621334A92.629333 92.629333 0 0 1 874.666667 135.253333v184.32a21.333333 21.333333 0 0 1-42.666667 0v-184.32a49.92 49.92 0 0 0-49.877333-49.92H284.501333A49.92 49.92 0 0 0 234.666667 135.253333V632.832A49.92 49.92 0 0 0 284.501333 682.666667h497.621334A49.92 49.92 0 0 0 832 632.832V447.573333a21.333333 21.333333 0 0 1 21.333333-21.333333M554.24 523.989333l66.645333-66.645333a21.248 21.248 0 0 1 30.165334 0 21.418667 21.418667 0 0 1 0 30.208l-103.082667 103.082667a21.333333 21.333333 0 0 1-30.165333 0L414.677333 487.552a21.418667 21.418667 0 0 1 30.208-30.208l66.688 66.730667v-206.293334a21.333333 21.333333 0 0 1 42.666667 0V523.989333zM532.906667 255.573333a21.333333 21.333333 0 0 1-21.333334-21.333333v-42.666667a21.333333 21.333333 0 0 1 42.666667 0v42.666667a21.333333 21.333333 0 0 1-21.333333 21.333333"  horiz-adv-x="1066" />

    
    <glyph glyph-name="RectangleCopy36" unicode="&#59078;" d="M762.651364 174.374887l-244.51961 75.945717 334.929146 381.136569-90.452202-457.082286zM902.041621 721.013387a21.333067 21.333067 0 0 1-22.485052 2.005309L155.981614 357.967259a21.333067 21.333067 0 1 1 2.986629-39.338175L387.488053 244.048683a21.333067 21.333067 0 1 1 13.226502 40.532826L221.388796 343.204777l577.699446 291.40969-334.715816-380.79524 0.426661-0.426661a20.906405 20.906405 0 0 1-5.759928-13.653163l-0.085332-176.339129a21.333067 21.333067 0 0 1 42.666133 0l0.085332 147.368825 270.929947-84.180281a21.418399 21.418399 0 0 1 27.263659 16.21313L910.148187 699.850985a21.546397 21.546397 0 0 1-8.106566 21.162402z"  horiz-adv-x="1040" />

    
    <glyph glyph-name="RectangleCopy37" unicode="&#59079;" d="M399.018667 630.741333C399.018667 659.370667 422.314667 682.666667 450.986667 682.666667h166.4c28.586667 0 51.925333-23.296 51.925333-51.925334v-29.696H399.018667v29.696z m114.261333-321.706666v-24.32a21.290667 21.290667 0 1 1 42.666667 0v24.32H874.666667v-190.592c0-31.36-25.472-56.917333-56.874667-56.917334H248.917333A57.002667 57.002667 0 0 0 192 118.442667V308.992h321.28z m382.72 125.952a21.333333 21.333333 0 0 1 21.333333 21.333333v45.226667a99.669333 99.669333 0 0 1-99.541333 99.498666h-105.813333v29.696A94.677333 94.677333 0 0 1 617.386667 725.333333h-166.4a94.72 94.72 0 0 1-94.634667-94.592v-29.696H248.917333A99.669333 99.669333 0 0 1 149.333333 501.504v-383.061333a99.712 99.712 0 0 1 99.584-99.584h568.874667A99.669333 99.669333 0 0 1 917.333333 118.442667v210.346666a21.290667 21.290667 0 0 1-13.44 19.712 20.778667 20.778667 0 0 1-10.538666 3.157334H555.946667v38.997333a21.333333 21.333333 0 0 1-42.666667 0v-38.997333H192V501.504c0 31.36 25.557333 56.874667 56.917333 56.874667h568.874667c31.402667 0 56.874667-25.514667 56.874667-56.874667v-45.184a21.333333 21.333333 0 0 1 21.333333-21.333333z"  horiz-adv-x="1066" />

    
    <glyph glyph-name="RectangleCopy38" unicode="&#59080;" d="M150.016 396.928c0.426667-0.085333 0.853333-0.298667 1.365333-0.298667H823.893333a21.333333 21.333333 0 1 1 0 42.666667H200.704l164.266667 164.266667A21.333333 21.333333 0 0 1 334.805333 633.728l-200.533333-200.533333a21.290667 21.290667 0 0 1 15.061333-36.437334c0.256 0 0.426667 0.128 0.682667 0.128M847.104 261.845333a21.333333 21.333333 0 0 1-15.488 6.186667c-0.597333 0.042667-1.109333 0.298667-1.621333 0.298667H157.44a21.333333 21.333333 0 1 1 0-42.666667h623.274667l-164.309334-164.394667a21.290667 21.290667 0 0 1 15.061334-36.394666 21.418667 21.418667 0 0 1 15.061333 6.229333l200.533333 200.576a21.333333 21.333333 0 0 1 0 30.165333"  horiz-adv-x="1024" />

    
    <glyph glyph-name="RectangleCopy39" unicode="&#59081;" d="M810.666667 338.688v58.154667c0 54.272-48 98.432-106.965334 98.432H357.888V587.818667C357.888 663.637333 427.52 725.333333 513.024 725.333333c85.546667 0 155.178667-61.696 155.178667-137.514666v-18.005334a21.333333 21.333333 0 1 1 42.666666 0v18.005334c0 99.370667-88.746667 180.181333-197.845333 180.181333-109.056 0-197.802667-80.810667-197.802667-180.181333v-93.013334C258.645333 492.330667 213.333333 449.536 213.333333 396.842667v-255.701334C213.333333 86.826667 261.290667 42.666667 320.256 42.666667h383.445333C762.666667 42.666667 810.666667 86.826667 810.666667 141.141333v69.546667a21.333333 21.333333 0 0 1-42.666667 0v-69.546667c0-30.805333-28.842667-55.808-64.298667-55.808H320.256C284.842667 85.333333 256 110.336 256 141.141333v255.701334c0 30.762667 28.842667 55.765333 64.256 55.765333h383.445333c35.456 0 64.298667-25.002667 64.298667-55.765333v-58.154667a21.333333 21.333333 0 0 1 42.666667 0z"  horiz-adv-x="1024" />

    
    <glyph glyph-name="RectangleCopy40" unicode="&#59082;" d="M852.650667 640H210.901333a21.333333 21.333333 0 0 1 0-42.666667h66.858667v-442.624A113.493333 113.493333 0 0 1 390.954667 41.386667h284.8a113.450667 113.450667 0 0 1 113.28 113.322666V275.584a21.333333 21.333333 0 1 1-42.666667 0v-120.874667c0-38.954667-31.658667-70.656-70.613333-70.656H390.954667a70.741333 70.741333 0 0 0-70.613334 70.656V597.333333h426.069334v-190.208a21.333333 21.333333 0 0 1 42.666666 0V597.333333h63.573334a21.333333 21.333333 0 0 1 0 42.666667M442.88 682.666667h187.818667a21.333333 21.333333 0 1 1 0 42.666666H442.88a21.333333 21.333333 0 0 1 0-42.666666M426.922667 490.666667v-298.666667a21.333333 21.333333 0 0 1 42.666666 0v298.666667a21.333333 21.333333 0 0 1-42.666666 0M597.589333 490.666667v-298.666667a21.333333 21.333333 0 0 1 42.666667 0v298.666667a21.333333 21.333333 0 0 1-42.666667 0"  horiz-adv-x="1066" />

    
    <glyph glyph-name="RectangleCopy41" unicode="&#59083;" d="M853.333333 268.970667v-64.426667C853.333333 171.093333 826.112 143.786667 792.704 143.786667H364.458667v77.44a21.333333 21.333333 0 0 1-42.666667 0V143.786667H231.296A60.8 60.8 0 0 0 170.666667 204.544V268.416c40.832 15.573333 67.541333 54.698667 67.541333 101.888 0 46.933333-26.794667 86.186667-67.541333 101.845333v64.426667c0 33.493333 27.221333 60.8 60.629333 60.8h90.496v-77.482667a21.333333 21.333333 0 0 1 42.666667 0V597.376h428.245333c33.408 0 60.629333-27.306667 60.629333-60.8v-65.066667c-39.765333-16.085333-65.792-55.04-65.792-101.205333 0-46.506667 25.898667-85.333333 65.792-101.333333m23.594667 165.76c0.384 0.085333 0.64 0.426667 0.981333 0.469333A21.077333 21.077333 0 0 1 896 455.893333V536.576A103.509333 103.509333 0 0 1 792.704 640.042667H231.296A103.509333 103.509333 0 0 1 128 536.576v-78.890667c0-9.472 6.272-17.237333 14.848-20.010666a21.333333 21.333333 0 0 1 6.016-2.944c27.946667-7.210667 46.677333-33.109333 46.677333-64.426667 0-32-19.370667-58.026667-48.256-64.768-1.706667-0.426667-3.072-1.28-4.565333-2.090667A21.077333 21.077333 0 0 1 128 283.434667v-78.890667A103.509333 103.509333 0 0 1 231.296 101.12h561.408A103.509333 103.509333 0 0 1 896 204.544v80.213333a20.992 20.992 0 0 1-16.682667 20.352c-0.298667 0.085333-0.554667 0.341333-0.853333 0.426667-28.885333 6.698667-48.256 32.725333-48.256 64.768 0 31.317333 18.773333 57.216 46.72 64.426667M343.125333 455.850667a21.333333 21.333333 0 0 1-21.333333-21.333334v-128a21.333333 21.333333 0 0 1 42.666667 0v128a21.333333 21.333333 0 0 1-21.333334 21.333334"  horiz-adv-x="1024" />

    
    <glyph glyph-name="RectangleCopy42" unicode="&#59084;" d="M192 86.528a21.333333 21.333333 0 0 0-19.029333 30.976l183.552 363.52a21.333333 21.333333 0 1 0 38.101333-19.285333l-183.594667-363.52a21.333333 21.333333 0 0 0-19.029333-11.690667M551.68 101.546667a21.248 21.248 0 0 0-18.986667 11.690666l-176.128 348.501334a21.333333 21.333333 0 1 0 38.058667 19.285333l176.128-348.501333a21.333333 21.333333 0 0 0-19.029333-31.018667M551.68 101.546667a21.290667 21.290667 0 0 0-18.176 32.426666l269.781333 442.154667a21.333333 21.333333 0 1 0 36.437334-22.186667L569.941333 111.786667a21.290667 21.290667 0 0 0-18.218666-10.24M641.706667 501.248a21.290667 21.290667 0 0 0-6.144 41.813333l179.626666 53.376a21.290667 21.290667 0 1 0 12.16-40.874666L647.765333 502.186667a21.76 21.76 0 0 0-6.101333-0.853334M874.666667 375.082667a21.290667 21.290667 0 0 0-20.437334 15.232L800.853333 569.898667a21.333333 21.333333 0 0 0 40.96 12.202666l53.333334-179.626666a21.333333 21.333333 0 0 0-20.437334-27.392"  horiz-adv-x="1024" />

    
    <glyph glyph-name="RectangleCopy43" unicode="&#59085;" d="M832 42.666667h-640a21.333333 21.333333 0 0 0 0 42.666666h640a21.333333 21.333333 0 0 0 0-42.666666M649.130667 256H192a21.333333 21.333333 0 0 0 0 42.666667h457.130667a21.333333 21.333333 0 0 0 0-42.666667M470.101333 469.333333H192a21.333333 21.333333 0 0 0 0 42.666667h278.101333a21.333333 21.333333 0 0 0 0-42.666667M279.637333 682.666667H192a21.333333 21.333333 0 0 0 0 42.666666h87.637333a21.333333 21.333333 0 0 0 0-42.666666"  horiz-adv-x="1024" />

    
    <glyph glyph-name="RectangleCopy44" unicode="&#59086;" d="M512 714.538667L650.666667 556.672H373.376L512 714.538667z m321.792-349.866667a21.333333 21.333333 0 0 1 21.333333 21.333333V450.005333c0 58.794667-47.829333 106.666667-106.666666 106.666667h-40.96L528.042667 760.96C527.701333 761.386667 527.232 761.472 526.890667 761.813333 526.592 762.154667 526.421333 762.581333 526.08 762.922667 525.312 763.605333 524.373333 763.818667 523.52 764.373333a19.925333 19.925333 0 0 1-3.584 2.048 19.2 19.2 0 0 1-4.010667 1.066667C514.602667 767.744 513.322667 768 512 768c-1.365333 0-2.645333-0.256-4.010667-0.512a21.290667 21.290667 0 0 1-3.925333-1.024 21.418667 21.418667 0 0 1-3.712-2.133333c-0.810667-0.554667-1.706667-0.768-2.432-1.408-0.341333-0.341333-0.469333-0.768-0.810667-1.066667-0.341333-0.341333-0.810667-0.512-1.152-0.853333L316.544 556.672H277.333333A106.794667 106.794667 0 0 1 170.666667 450.005333v-256C170.666667 135.168 218.496 87.338667 277.333333 87.338667h471.125334c58.837333 0 106.666667 47.829333 106.666666 106.666666V258.005333a21.333333 21.333333 0 0 1-42.666666 0v-64c0-35.285333-28.714667-64-64-64H277.333333c-35.285333 0-64 28.714667-64 64v256C213.333333 485.290667 242.048 514.005333 277.333333 514.005333h471.125334c35.285333 0 64-28.714667 64-64V386.005333a21.333333 21.333333 0 0 1 21.333333-21.333333zM704 428.672h-384a21.333333 21.333333 0 0 1 0-42.666667h384a21.333333 21.333333 0 0 1 0 42.666667M725.333333 322.005333a21.333333 21.333333 0 0 1-21.333333 21.333334h-384a21.333333 21.333333 0 0 1 0-42.666667h384a21.333333 21.333333 0 0 1 21.333333 21.333333M320 258.005333a21.333333 21.333333 0 0 1 0-42.666666h170.666667a21.333333 21.333333 0 0 1 0 42.666666h-170.666667z"  horiz-adv-x="1024" />

    
    <glyph glyph-name="RectangleCopy45" unicode="&#59087;" d="M919.082667 452.437333a21.333333 21.333333 0 0 1 21.333333 21.333334V576.042667c0 58.794667-47.829333 106.666667-106.666667 106.666666H277.333333A106.794667 106.794667 0 0 1 170.666667 576v-298.666667C170.666667 218.453333 218.496 170.666667 277.333333 170.666667h154.368l108.842667-120.96c0.256-0.341333 0.682667-0.426667 0.938667-0.725334 0.298667-0.213333 0.384-0.597333 0.682666-0.853333 1.152-1.024 2.517333-1.578667 3.797334-2.304 0.810667-0.512 1.578667-1.152 2.432-1.493333a21.077333 21.077333 0 0 1 8.021333-1.706667 21.077333 21.077333 0 0 1 8.021333 1.706667c0.853333 0.341333 1.621333 0.981333 2.432 1.493333 1.28 0.725333 2.645333 1.28 3.797334 2.304 0.298667 0.213333 0.384 0.597333 0.682666 0.853333 0.256 0.341333 0.682667 0.426667 0.938667 0.725334l104.832 116.48h156.629333c58.837333 0 106.666667 47.829333 106.666667 106.666666v74.666667a21.333333 21.333333 0 0 1-42.666667 0v-74.666667c0-35.328-28.714667-64-64-64h-160.128a21.333333 21.333333 0 0 1-21.077333-6.186666l-96.128-106.794667-96.128 106.837333c-0.810667 0.853333-1.877333 1.28-2.773333 2.005334a20.906667 20.906667 0 0 1-16.64 8.618666H277.333333C242.048 213.333333 213.333333 241.962667 213.333333 277.333333v298.666667C213.333333 611.328 242.048 640 277.333333 640h556.416c35.285333 0 64-28.757333 64-64v-102.272a21.333333 21.333333 0 0 1 21.333334-21.333333M321.749333 432.896a21.333333 21.333333 0 0 1 0-42.666667h88.917334a21.333333 21.333333 0 0 1 0 42.666667H321.749333zM515.541333 432.896a21.333333 21.333333 0 0 1 0-42.666667h87.125334a21.333333 21.333333 0 0 1 0 42.666667h-87.125334zM705.749333 432.896a21.333333 21.333333 0 0 1 0-42.666667h87.125334a21.333333 21.333333 0 0 1 0 42.666667h-87.125334z"  horiz-adv-x="1024" />

    
    <glyph glyph-name="RectangleCopy46" unicode="&#59088;" d="M642.901333 422.272a21.333333 21.333333 0 0 1 30.165334-30.165333L819.2 538.282667a105.813333 105.813333 0 0 1 31.274667 75.392c0 28.458667-11.136 55.253333-31.232 75.392l-5.034667 5.077333a106.794667 106.794667 0 0 1-150.869333 0L469.162667 499.968 417.194667 551.936a21.333333 21.333333 0 0 1-30.165334-30.165333L453.973333 454.826667c0-0.042667 0-0.085333 0.085334-0.128l0.128-0.085334 48.810666-48.810666-252.885333-252.842667a21.973333 21.973333 0 0 1-5.589333 4.864 20.821333 20.821333 0 0 1-25.856-4.266667l-0.298667-0.213333c-0.170667-0.170667-0.256-0.426667-0.426667-0.64-0.853333-0.981333-1.877333-1.749333-2.56-2.944l-42.282666-74.666667c-0.426667-0.810667-0.469333-1.664-0.853334-2.517333-0.512-1.365333-1.066667-2.688-1.322666-4.138667-0.256-1.408-0.256-2.688-0.256-4.096 0-1.322667 0-2.602667 0.341333-3.925333 0.298667-1.493333 0.853333-2.816 1.450667-4.181333 0.341333-0.853333 0.384-1.706667 0.853333-2.517334 0.170667-0.298667 0.554667-0.384 0.725333-0.682666a20.266667 20.266667 0 0 1 7.168-6.997334c2.56-1.450667 5.546667-1.962667 8.490667-2.261333 0.64-0.042667 1.28-0.512 1.962667-0.512 0.341333 0 0.64 0.256 0.981333 0.256a21.290667 21.290667 0 0 1 9.770667 2.730667h0.128l73.386666 43.562666a21.333333 21.333333 0 0 1 7.509334 29.226667c-0.853333 1.450667-2.133333 2.432-3.285334 3.626667l253.013334 252.970666 112-112a21.248 21.248 0 0 1 30.165333 0 21.333333 21.333333 0 0 1 0 30.165334L499.328 469.802667l194.133333 194.176a64.213333 64.213333 0 0 0 90.538667 0.042666l5.034667-5.077333c12.074667-12.074667 18.773333-28.16 18.773333-45.269333 0-17.109333-6.656-33.152-18.773333-45.226667l-146.133334-146.176z"  horiz-adv-x="1024" />

    
    <glyph glyph-name="RectangleCopy47" unicode="&#59089;" d="M831.917653 354.773333H233.81632L397.229653 518.229333a21.333333 21.333333 0 0 1-30.165333 30.165334L176.770987 358.144a21.205333 21.205333 0 0 1-4.096-23.893333c-0.085333-0.298667-0.170667-0.512-0.170667-0.810667a21.333333 21.333333 0 0 1 21.333333-21.333333h638.037334a21.333333 21.333333 0 0 1 0 42.666666"  horiz-adv-x="1024" />

    
    <glyph glyph-name="RectangleCopy48" unicode="&#59090;" d="M853.333333 387.584a21.333333 21.333333 0 0 1 21.333334 21.333333v128a106.24 106.24 0 0 1-106.154667 106.069334H298.24A106.24 106.24 0 0 1 192 536.917333v-386.389333a106.24 106.24 0 0 1 106.24-106.069333h470.272a106.24 106.24 0 0 1 106.197333 106.069333v128.597333a21.333333 21.333333 0 0 1-42.666666 0v-128.597333a63.573333 63.573333 0 0 0-63.573334-63.402667H298.24a63.573333 63.573333 0 0 0-63.573333 63.402667V536.917333A63.573333 63.573333 0 0 0 298.24 600.32h470.272A63.573333 63.573333 0 0 0 832 536.917333v-128a21.333333 21.333333 0 0 1 21.333333-21.333333M339.541333 682.666667h389.376a21.333333 21.333333 0 0 1 0 42.666666H339.584a21.333333 21.333333 0 0 1 0-42.666666"  horiz-adv-x="1066" />

    
    <glyph glyph-name="RectangleCopy49" unicode="&#59091;" d="M853.718752 272.167332c0.383997 1.450655 0.767994 2.815977 0.853327 4.266631 0 0.426663 0.255998 0.853326 0.255998 1.279989 0 0.895993-0.426663 1.706652-0.511996 2.602645-0.213332 1.450655-0.426663 2.858643-0.853326 4.266631a22.101149 22.101149 0 0 1-1.962651 3.882635c-0.469329 0.81066-0.639995 1.706652-1.279989 2.43198L706.562645 473.594987l58.708844 180.734494c0.34133 1.109324 0.170665 2.218648 0.383997 3.327972 0.170665 1.066658 0.639995 2.047983 0.639995 3.199973 0 0.34133-0.170665 0.597328-0.170665 0.938659-0.085333 1.535987-0.511996 2.986642-0.895993 4.479963-0.34133 1.194657-0.511996 2.474646-1.066658 3.541304-0.554662 1.279989-1.450655 2.303981-2.261314 3.413304-0.853326 1.109324-1.493321 2.218648-2.474646 3.199974-0.938659 0.853326-2.047983 1.365322-3.157307 2.047983-1.279989 0.853326-2.474646 1.706652-3.925301 2.218648-0.298664 0.127999-0.511996 0.426663-0.853326 0.469329-1.023991 0.34133-2.133316 0.255998-3.157307 0.341331-1.15199 0.255998-2.175982 0.682661-3.413305 0.682661H218.246715L212.913426 708.259698A21.333156 21.333156 0 1 1 171.100441 699.769102l129.790918-641.829318a21.418488 21.418488 0 0 1 25.173124-16.639861 21.333156 21.333156 0 0 1 16.639861 25.08779L226.86531 639.566937H715.522571l-53.162224-163.667969c-0.213332-0.597328-0.085333-1.279989-0.213331-1.919984a18.346514 18.346514 0 0 1-0.511996-4.309298 17.962517 17.962517 0 0 1 1.365322-7.850601 22.101149 22.101149 0 0 1 1.96265-3.839968c0.383997-0.554662 0.426663-1.279989 0.853326-1.834652l123.689636-157.140023H405.338489a21.333156 21.333156 0 1 1 0-42.666311h428.113766c4.607962 0 8.533262 1.791985 12.031899 4.223964 0.34133 0.255998 0.81066 0.127999 1.151991 0.383997 0.34133 0.213332 0.426663 0.597328 0.767993 0.853326a20.693161 20.693161 0 0 1 2.943976 3.498638c0.767994 1.023991 1.578654 1.96265 2.133315 3.114641 0.554662 1.194657 0.853326 2.43198 1.194657 3.754635"  horiz-adv-x="1024" />

    
    <glyph glyph-name="RectangleCopy50" unicode="&#59092;" d="M832 682.666667h-426.666667a21.333333 21.333333 0 0 0 0 42.666666h426.666667a21.333333 21.333333 0 0 0 0-42.666666M277.333333 682.666667h-85.333333a21.333333 21.333333 0 0 0 0 42.666666h85.333333a21.333333 21.333333 0 0 0 0-42.666666M832 362.666667h-426.666667a21.333333 21.333333 0 0 0 0 42.666666h426.666667a21.333333 21.333333 0 0 0 0-42.666666M277.333333 362.666667h-85.333333a21.333333 21.333333 0 0 0 0 42.666666h85.333333a21.333333 21.333333 0 0 0 0-42.666666M832 42.666667h-426.666667a21.333333 21.333333 0 0 0 0 42.666666h426.666667a21.333333 21.333333 0 0 0 0-42.666666M277.333333 42.666667h-85.333333a21.333333 21.333333 0 0 0 0 42.666666h85.333333a21.333333 21.333333 0 0 0 0-42.666666"  horiz-adv-x="1024" />

    
    <glyph glyph-name="RectangleCopy51" unicode="&#59093;" d="M832 492.501333a21.333333 21.333333 0 0 1 21.333333 21.333334V619.264A106.24 106.24 0 0 1 747.136 725.333333H276.864A106.24 106.24 0 0 1 170.666667 619.264v-342.528A106.24 106.24 0 0 1 276.864 170.666667h470.272A106.24 106.24 0 0 1 853.333333 276.736V384a21.333333 21.333333 0 0 1-42.666666 0v-107.264A63.573333 63.573333 0 0 0 747.136 213.333333H276.864A63.573333 63.573333 0 0 0 213.333333 276.736V619.264A63.573333 63.573333 0 0 0 276.864 682.666667h470.272A63.573333 63.573333 0 0 0 810.666667 619.264v-105.429333a21.333333 21.333333 0 0 1 21.333333-21.333334M792.874667 85.333333H232.874667a21.333333 21.333333 0 0 1 0-42.666666h560a21.333333 21.333333 0 0 1 0 42.666666"  horiz-adv-x="1024" />

    
    <glyph glyph-name="RectangleCopy52" unicode="&#59094;" d="M222.464 237.653333l137.813333 134.613334 157.738667-196.693334a21.333333 21.333333 0 1 1 33.28 26.624l-32.938667 41.088 100.778667 84.48 183.466667-218.154666a49.194667 49.194667 0 0 0-41.813334-24.277334H263.253333A49.92 49.92 0 0 0 213.333333 135.253333v97.365334a20.736 20.736 0 0 1 9.130667 4.992M832 426.24a21.333333 21.333333 0 0 1 21.333333 21.333333V632.789333a92.629333 92.629333 0 0 1-92.544 92.586667H263.253333A92.629333 92.629333 0 0 1 170.666667 632.746667V135.253333A92.586667 92.586667 0 0 1 263.253333 42.666667H760.746667a92.586667 92.586667 0 0 1 92.586666 92.586666V319.573333a21.333333 21.333333 0 0 1-42.666666 0v-153.173333l-172.586667 205.141333c-0.853333 1.024-2.048 1.578667-2.986667 2.389334-1.237333 0.981333-2.346667 2.176-3.669333 2.858666-0.128 0.085333-0.298667 0.085333-0.426667 0.128a20.906667 20.906667 0 0 1-22.997333-2.816l-116.352-97.536-112.810667 140.8c-0.256 0.256-0.597333 0.341333-0.810666 0.64-0.256 0.256-0.341333 0.64-0.597334 0.896-0.810667 0.853333-1.834667 1.194667-2.688 1.834667-1.152 0.853333-2.133333 1.749333-3.413333 2.304-1.28 0.64-2.56 0.896-3.968 1.28-1.28 0.298667-2.517333 0.682667-3.84 0.768-1.450667 0.085333-2.773333-0.170667-4.181333-0.341333-1.28-0.170667-2.56-0.256-3.84-0.682667-1.408-0.426667-2.645333-1.28-3.925334-2.048-0.853333-0.512-1.92-0.725333-2.730666-1.408-0.298667-0.213333-0.384-0.554667-0.64-0.768-0.298667-0.256-0.682667-0.341333-0.938667-0.597333L213.333333 288.341333V632.789333A49.92 49.92 0 0 0 263.253333 682.709333H760.746667c27.477333 0 49.92-22.442667 49.92-49.92V447.573333a21.333333 21.333333 0 0 1 21.333333-21.333333M704.426667 553.344a22.229333 22.229333 0 1 0 0.042666 44.458667 22.229333 22.229333 0 0 0 0-44.458667m0 87.125333c-35.84 0-64.896-29.141333-64.896-64.896 0-35.84 29.098667-64.896 64.853334-64.896 35.797333 0 64.938667 29.098667 64.938666 64.853334 0 35.797333-29.141333 64.938667-64.896 64.938666"  horiz-adv-x="1024" />

    
    <glyph glyph-name="RectangleCopy53" unicode="&#59095;" d="M833.792 488.917333a21.333333 21.333333 0 0 1 21.333333 21.333334v64c0 58.794667-47.829333 106.666667-106.666666 106.666666H533.333333V704a21.333333 21.333333 0 0 1-42.666666 0v-23.082667h-213.333334a106.794667 106.794667 0 0 1-106.666666-106.666666v-256c0-58.837333 47.829333-106.666667 106.666666-106.666667h213.333334v-49.877333l-138.581334-79.189334a21.333333 21.333333 0 1 1 21.162667-37.034666L512 124.757333l138.752-79.274666a21.376 21.376 0 0 1 21.162667 37.034666L533.333333 161.706667v49.877333h215.125334c58.837333 0 106.666667 47.829333 106.666666 106.666667v64a21.333333 21.333333 0 0 1-42.666666 0v-64c0-35.328-28.714667-64-64-64H277.333333c-35.285333 0-64 28.672-64 64v256c0 35.285333 28.714667 64 64 64h471.125334c35.285333 0 64-28.714667 64-64v-64a21.333333 21.333333 0 0 1 21.333333-21.333334M643.114667 565.76l-108.032-177.066667-66.261334 131.157334c-0.384 0.725333-1.024 1.194667-1.493333 1.877333a20.010667 20.010667 0 0 1-6.101333 6.101333c-0.64 0.426667-1.109333 1.066667-1.834667 1.450667-0.426667 0.213333-0.981333 0.170667-1.493333 0.426667a20.394667 20.394667 0 0 1-4.266667 1.152 19.242667 19.242667 0 0 1-3.797333 0.469333c-1.365333 0-2.688-0.256-4.053334-0.512a19.029333 19.029333 0 0 1-4.053333-1.109333c-0.512-0.213333-1.066667-0.213333-1.578667-0.426667-0.725333-0.384-1.194667-1.066667-1.877333-1.493333a18.645333 18.645333 0 0 1-5.973333-5.973334c-0.512-0.725333-1.194667-1.194667-1.578667-1.962666l-87.125333-172.458667a21.333333 21.333333 0 0 1 38.101333-19.2l68.096 134.698667 64.469333-127.573334c0.213333-0.426667 0.64-0.597333 0.853334-0.938666 1.706667-2.986667 3.925333-5.76 7.082666-7.68h0.042667a21.546667 21.546667 0 0 1 20.693333-0.853334l0.341334 0.256c0.512 0.298667 0.896 0.768 1.408 1.109334a20.352 20.352 0 0 1 5.973333 5.674666c0.213333 0.426667 0.64 0.512 0.896 0.896l128 209.749334a21.418667 21.418667 0 0 1-7.125333 29.354666 21.248 21.248 0 0 1-29.312-7.125333"  horiz-adv-x="1024" />

    
    <glyph glyph-name="RectangleCopy54" unicode="&#59096;" d="M906.817707 75.477333l-123.136 213.248a21.162667 21.162667 0 0 1-29.098667 7.808 21.248 21.248 0 0 1-7.808-29.141333L851.393707 86.144H186.305707L518.849707 662.144l154.026666-266.666667c0.426667-0.896 1.28-1.408 1.877334-2.176 1.024-1.28 1.92-2.602667 3.242666-3.669333 1.194667-0.981333 2.56-1.578667 4.010667-2.261333 0.981333-0.469333 1.706667-1.237333 2.816-1.578667 0.213333-0.042667 0.384 0 0.597333-0.085333 0.554667-0.128 1.109333-0.128 1.706667-0.256 1.408-0.256 2.773333-0.64 4.181333-0.64 0.341333 0 0.597333 0.298667 0.938667 0.298666a20.949333 20.949333 0 0 1 9.728 2.56c0.426667 0.256 0.64 0.64 1.024 0.896 0.64 0.426667 1.066667 0.981333 1.664 1.493334a20.266667 20.266667 0 0 1 6.357333 8.746666c0.128 0.341333 0.512 0.469333 0.64 0.853334l37.973334 118.485333a21.333333 21.333333 0 1 1-40.661334 13.013333l-23.296-72.661333L537.324373 715.477333c-7.594667 13.184-29.354667 13.184-36.906666 0l-369.536-640A21.418667 21.418667 0 0 1 149.356373 43.477333h738.986667a21.333333 21.333333 0 0 1 18.474667 32M612.844373 274.133333a21.333333 21.333333 0 0 1 0 42.666667h-70.784v3.84l62.848 59.306667a21.333333 21.333333 0 1 1-29.226666 31.018666l-56.448-53.248-56.490667 53.248a21.248 21.248 0 1 1-29.226667-31.018666l65.877334-62.122667v-1.024H424.641707a21.333333 21.333333 0 0 1 0-42.666667h74.752v-22.058666H424.641707a21.333333 21.333333 0 1 1 0-42.666667h74.752v-51.2a21.333333 21.333333 0 1 1 42.666666 0v51.2h70.826667a21.333333 21.333333 0 0 1 0 42.666667h-70.826667v22.058666h70.826667z"  horiz-adv-x="1024" />

    
    <glyph glyph-name="RectangleCopy55" unicode="&#59097;" d="M796.458667 442.666667c-24.533333 0-45.482667-15.061333-54.272-36.437334h-79.061334a21.333333 21.333333 0 0 1-21.333333-21.333333l0.085333-0.469333-0.085333-0.426667c0-70.570667-57.429333-128-128-128s-128 57.429333-128 128 57.429333 128 128 128c29.397333 0 58.026667-10.197333 80.810667-28.757333a21.418667 21.418667 0 0 1 30.037333 3.029333 21.418667 21.418667 0 0 1-3.072 30.08A171.136 171.136 0 0 1 513.792 554.666667c-40.704 0-77.653333-14.933333-107.008-38.826667L328.021333 594.602667C336.341333 607.786667 341.333333 623.274667 341.333333 640a85.333333 85.333333 0 1 1-85.333333-85.333333c14.890667 0 28.586667 4.138667 40.789333 10.837333l80.341334-80.341333A168.96 168.96 0 0 1 343.125333 384c0-40.277333 14.592-76.842667 37.973334-106.026667l-78.549334-78.592A84.906667 84.906667 0 0 1 256 213.333333a85.333333 85.333333 0 1 1 85.333333-85.333333c0 14.378667-3.882667 27.733333-10.24 39.637333l80.554667 80.512A168.96 168.96 0 0 1 513.792 213.333333c87.125333 0 158.293333 65.792 168.618667 150.229334h59.264A58.538667 58.538667 0 0 1 855.125333 384c0 32.384-26.282667 58.666667-58.666666 58.666667"  horiz-adv-x="1024" />

    
    <glyph glyph-name="RectangleCopy56" unicode="&#59098;" d="M744.671147 520.405333a21.333333 21.333333 0 0 1-30.165334 0L515.89248 321.749333 318.13248 520.405333a94.592 94.592 0 0 0-27.861333 67.242667A95.232 95.232 0 0 0 452.703147 654.890667l48.554666-48.554667a21.333333 21.333333 0 0 1 30.165334 0l48.64 48.554667a95.146667 95.146667 0 0 0 152.32-24.576 21.333333 21.333333 0 1 1 38.144 19.157333A137.984 137.984 0 0 1 549.81248 685.056l-33.536-33.493333-33.493333 33.493333a137.984 137.984 0 0 1-194.858667 0 136.874667 136.874667 0 0 1-40.362667-97.408c0-36.778667 14.336-71.381333 40.362667-97.408l212.736-213.76c3.968-4.010667 9.386667-6.272 15.061333-6.272h0.042667c5.674667 0 11.093333 2.218667 15.061333 6.186667l213.802667 213.845333a21.333333 21.333333 0 0 1 0 30.165333M840.62848 460.928a21.674667 21.674667 0 0 1-26.112-15.104A311.210667 311.210667 0 0 0 615.47648 232.32c-0.298667-0.128-0.426667-0.341333-0.768-0.469333a21.034667 21.034667 0 0 1-15.36-20.138667V65.92a21.333333 21.333333 0 1 1 42.666667 0V197.205333A353.450667 353.450667 0 0 1 855.775147 434.773333a21.418667 21.418667 0 0 1-15.146667 26.154667M421.257813 225.834667a20.906667 20.906667 0 0 1-8.746666 6.186666A311.04 311.04 0 0 0 212.66048 445.952 21.674667 21.674667 0 0 1 186.463147 461.013333a21.333333 21.333333 0 0 1-15.061334-26.154666A353.194667 353.194667 0 0 1 386.015147 196.906667V65.92a21.333333 21.333333 0 0 1 42.666666 0V209.92a21.034667 21.034667 0 0 1-7.424 15.914667"  horiz-adv-x="1024" />

    
    <glyph glyph-name="RectangleCopy57" unicode="&#59099;" d="M192 554.666667h638.250667a21.333333 21.333333 0 0 1 0 42.666666H192a21.333333 21.333333 0 0 1 0-42.666666M830.250667 385.749333H192a21.333333 21.333333 0 0 1 0-42.666666h638.250667a21.333333 21.333333 0 0 1 0 42.666666M830.250667 172.416H192a21.333333 21.333333 0 0 1 0-42.666667h638.250667a21.333333 21.333333 0 0 1 0 42.666667"  horiz-adv-x="1024" />

    
    <glyph glyph-name="RectangleCopy58" unicode="&#59100;" d="M513.792 664.832l135.082667-210.346667-135.082667-95.573333-135.082667 95.573333 135.082667 210.346667z m323.413333-87.04c-1.066667 0.170667-2.133333-0.128-3.157333-0.085333a21.205333 21.205333 0 0 1-16.128-3.541334L683.733333 479.146667l-151.978666 236.629333-0.170667 0.213333c-0.896 1.28-2.218667 2.304-3.413333 3.413334-0.853333 0.853333-1.578667 1.92-2.602667 2.56l-0.213333 0.256c-0.981333 0.64-2.133333 0.768-3.072 1.194666-1.450667 0.64-2.858667 1.408-4.437334 1.706667-1.28 0.256-2.56 0.085333-3.882666 0.128-1.450667 0-2.858667 0.170667-4.309334-0.128-1.493333-0.298667-2.858667-1.066667-4.266666-1.706667-1.066667-0.426667-2.176-0.554667-3.157334-1.194666l-0.213333-0.213334c-1.066667-0.682667-1.834667-1.792-2.773333-2.688-1.109333-1.109333-2.389333-2.048-3.242667-3.328l-0.170667-0.213333L343.850667 479.146667 209.664 574.165333a21.162667 21.162667 0 0 1-16.213333 3.413334c-1.706667 0.170667-3.242667 0.512-4.906667 0.213333a21.333333 21.333333 0 0 1-17.578667-24.533333l60.458667-366.208c0.128-0.938667 0.64-1.749333 0.938667-2.645334 0.341333-1.109333 0.64-2.176 1.152-3.242666a20.992 20.992 0 0 1 2.56-3.84c0.682667-0.853333 1.237333-1.706667 2.005333-2.346667a19.968 19.968 0 0 1 4.181333-2.816c0.810667-0.469333 1.493333-1.024 2.346667-1.365333a21.077333 21.077333 0 0 1 7.808-1.578667h520.917333a21.077333 21.077333 0 0 1 7.850667 1.578667c0.853333 0.341333 1.536 0.853333 2.346667 1.365333a19.968 19.968 0 0 1 4.181333 2.816c0.768 0.682667 1.28 1.536 1.962667 2.346667a20.992 20.992 0 0 1 2.56 3.84c0.554667 1.066667 0.853333 2.133333 1.194666 3.242666 0.298667 0.853333 0.810667 1.706667 0.938667 2.645334l14.677333 88.874666a21.333333 21.333333 0 0 1-42.069333 6.954667l-11.733333-70.997333H270.506667L220.586667 514.090667l280.832-198.741334c0.384-0.298667 0.853333-0.170667 1.28-0.426666 3.413333-2.133333 7.125333-3.498667 11.050666-3.498667a21.248 21.248 0 0 1 11.050667 3.498667c0.384 0.256 0.853333 0.128 1.28 0.426666l278.784 197.333334-16.768-101.76a21.333333 21.333333 0 1 1 42.069333-6.954667l24.618667 149.290667a21.333333 21.333333 0 0 1-17.578667 24.533333zM791.125333 85.632h-554.666666a21.333333 21.333333 0 0 1 0-42.666667h554.666666a21.333333 21.333333 0 0 1 0 42.666667"  horiz-adv-x="1024" />

    
    <glyph glyph-name="RectangleCopy59" unicode="&#59101;" d="M234.666667 576h128v-42.666667a21.333333 21.333333 0 0 1 42.666666 0v42.666667h467.541334a21.333333 21.333333 0 0 1 0 42.666667H405.333333v42.666666a21.333333 21.333333 0 0 1-42.666666 0v-42.666666h-128a21.333333 21.333333 0 0 1 0-42.666667M872.874667 407.082667H746.666667v44.458666a21.333333 21.333333 0 0 1-42.666667 0v-44.458666h-469.333333a21.333333 21.333333 0 0 1 0-42.666667h469.333333v-40.832a21.333333 21.333333 0 1 1 42.666667 0v40.832h126.208a21.333333 21.333333 0 0 1 0 42.666667M872.874667 193.749333H405.333333v42.666667a21.333333 21.333333 0 0 1-42.666666 0v-42.666667h-128a21.333333 21.333333 0 0 1 0-42.666666h128v-42.666667a21.333333 21.333333 0 0 1 42.666666 0v42.666667h467.541334a21.333333 21.333333 0 0 1 0 42.666666"  horiz-adv-x="1024" />

    
    <glyph glyph-name="RectangleCopy60" unicode="&#59102;" d="M832 426.24a21.333333 21.333333 0 0 0-21.333333 21.333333V632.832A49.92 49.92 0 0 1 760.789333 682.666667h-78.592v-63.530667c0-11.818667-9.514667-21.333333-21.333333-21.333333h-298.666667a21.333333 21.333333 0 0 0-21.333333 21.333333V682.666667H263.168A49.92 49.92 0 0 1 213.333333 632.832v-497.621333A49.92 49.92 0 0 1 263.168 85.333333h497.621333A49.92 49.92 0 0 1 810.666667 135.210667V319.573333a21.333333 21.333333 0 1 0 42.666666 0v-184.362666A92.629333 92.629333 0 0 0 760.789333 42.666667H263.168A92.629333 92.629333 0 0 0 170.666667 135.210667V632.832C170.666667 683.818667 212.181333 725.333333 263.168 725.333333h497.621333C811.818667 725.333333 853.333333 683.818667 853.333333 632.832v-185.258667a21.333333 21.333333 0 0 0-21.333333-21.333333zM383.530667 640.469333h256V682.666667h-256v-42.197334z"  horiz-adv-x="1024" />

    
    <glyph glyph-name="RectangleCopy61" unicode="&#59103;" d="M517.632 343.850667c80.64 0 152.277333 46.677333 182.613333 118.954666a21.333333 21.333333 0 0 1-39.338666 16.512c-23.594667-56.362667-79.914667-92.8-143.274667-92.8-85.162667 0-154.453333 66.432-154.453333 148.053334 0 29.568 9.045333 58.026667 26.026666 82.474666 28.842667 41.088 76.8 65.621333 128.426667 65.621334 51.541333 0 99.498667-24.490667 128.298667-65.578667 5.930667-8.405333 10.965333-17.536 14.933333-27.136a21.333333 21.333333 0 1 1 39.338667 16.597333 188.416 188.416 0 0 1-19.370667 35.072C644.096 694.058667 583.04 725.333333 517.632 725.333333c-65.493333 0-126.549333-31.317333-163.285333-83.84a185.429333 185.429333 0 0 1-33.834667-106.88c0-105.216 88.405333-190.762667 197.12-190.762666M720.170667 85.333333H303.872C253.952 85.333333 213.333333 126.421333 213.333333 176.938667c0 50.517333 40.618667 91.605333 90.538667 91.605333h416.298667c49.92 0 90.453333-41.088 90.453333-91.605333C810.666667 126.421333 770.133333 85.333333 720.213333 85.333333m0 225.877334H303.872C230.4 311.210667 170.666667 250.965333 170.666667 176.938667 170.666667 102.912 230.4 42.666667 303.872 42.666667h416.298667c73.386667 0 133.12 60.245333 133.12 134.272C853.333333 250.965333 793.6 311.210667 720.213333 311.210667M475.136 156.586667l38.826667-36.138667 38.016 37.674667-37.973334 75.264z"  horiz-adv-x="1024" />

    
    <glyph glyph-name="RectangleCopy62" unicode="&#59104;" d="M517.632 343.850667c80.64 0 152.277333 46.677333 182.613333 118.954666a20.394667 20.394667 0 0 1 1.408 6.698667 21.290667 21.290667 0 0 1-19.456 29.952h-188.245333a21.333333 21.333333 0 1 1 0-42.666667h154.965333c-27.818667-43.264-76.842667-70.272-131.285333-70.272-85.162667 0-154.453333 66.432-154.453333 148.053334 0 29.568 9.045333 58.026667 26.026666 82.474666 28.842667 41.088 76.8 65.621333 128.426667 65.621334 51.541333 0 99.498667-24.490667 128.298667-65.578667 5.930667-8.405333 10.965333-17.536 14.933333-27.136a21.333333 21.333333 0 1 1 39.338667 16.597333 188.416 188.416 0 0 1-19.370667 35.072C644.096 694.058667 583.04 725.333333 517.632 725.333333c-65.493333 0-126.549333-31.317333-163.285333-83.84a185.429333 185.429333 0 0 1-33.834667-106.88c0-105.216 88.405333-190.762667 197.12-190.762666M541.354667 85.333333H303.872C253.994667 85.333333 213.333333 126.421333 213.333333 176.938667c0 50.517333 40.618667 91.605333 90.581334 91.605333h235.648a21.333333 21.333333 0 0 1 0 42.666667H303.872C230.485333 311.210667 170.666667 250.965333 170.666667 176.938667 170.666667 102.912 230.4 42.666667 303.914667 42.666667h237.482666a21.333333 21.333333 0 0 1 0 42.666666M712.021333 237.312a64 64 0 1 1 0-128 64 64 0 0 1 0 128M712.021333 66.645333a106.794667 106.794667 0 0 0-106.666666 106.666667c0 58.794667 47.786667 106.666667 106.666666 106.666667 58.837333 0 106.666667-47.829333 106.666667-106.666667 0-58.794667-47.829333-106.666667-106.666667-106.666667m0 256c-82.346667 0-149.333333-66.986667-149.333333-149.333333s66.986667-149.333333 149.333333-149.333333 149.333333 66.986667 149.333334 149.333333-66.986667 149.333333-149.333334 149.333333"  horiz-adv-x="1024" />

    
    <glyph glyph-name="RectangleCopy63" unicode="&#59105;" d="M534.656 85.333333H263.168A49.92 49.92 0 0 0 213.333333 135.168V632.789333A49.92 49.92 0 0 0 263.168 682.666667h497.621333a49.92 49.92 0 0 0 49.92-49.877334v-273.237333a21.290667 21.290667 0 1 1 42.666667 0V632.789333A92.629333 92.629333 0 0 1 760.746667 725.333333H263.168A92.586667 92.586667 0 0 1 170.666667 632.789333v-497.621333A92.586667 92.586667 0 0 1 263.168 42.666667h271.488a21.333333 21.333333 0 0 1 0 42.666666M383.573333 596.906667a21.333333 21.333333 0 0 1-21.333333-21.333334v-87.466666c0-81.664 66.986667-148.138667 149.333333-148.138667s149.333333 66.474667 149.333334 148.096V575.573333a21.333333 21.333333 0 0 1-42.666667 0v-87.466666c0-58.112-47.872-105.386667-106.666667-105.386667-58.88 0-106.666667 47.274667-106.666666 105.386667V575.573333a21.333333 21.333333 0 0 1-21.333334 21.333334M706.858667 256.213333a64 64 0 1 1 0.042666-128.042666 64 64 0 0 1 0 128.042666M706.858667 85.546667a106.794667 106.794667 0 0 0-106.666667 106.666666c0 58.794667 47.829333 106.666667 106.666667 106.666667 58.88 0 106.666667-47.872 106.666666-106.666667s-47.786667-106.666667-106.666666-106.666666m0 256c-82.346667 0-149.333333-66.986667-149.333334-149.333334s66.986667-149.333333 149.333334-149.333333 149.333333 66.986667 149.333333 149.333333-66.986667 149.333333-149.333333 149.333334"  horiz-adv-x="1024" />

    
    <glyph glyph-name="RectangleCopy64" unicode="&#59106;" d="M832 426.112a21.333333 21.333333 0 0 1 21.333333 21.333333V641.536a21.077333 21.077333 0 0 1-18.304 20.736c-1.408 0.64-2.730667 1.450667-4.309333 1.792l-314.666667 60.970667a19.328 19.328 0 0 1-6.272-0.042667 19.712 19.712 0 0 1-7.253333 0l-309.333333-60.928c-1.578667-0.341333-2.858667-1.194667-4.266667-1.792A21.034667 21.034667 0 0 1 170.666667 641.536v-286.165333c0-1.450667 0.554667-2.730667 0.810666-4.096 8.661333-175.573333 173.781333-287.744 337.408-308.309334a18.944 18.944 0 0 1 2.688-0.170666h0.853334a18.944 18.944 0 0 1 2.688 0.170666c140.757333 17.664 305.322667 110.592 333.866666 272.810667a21.333333 21.333333 0 1 1-41.984 7.381333c-24.704-140.074667-169.770667-221.056-294.954666-237.525333C363.221333 105.130667 213.333333 207.146667 213.333333 365.525333v258.986667l296.064 58.368L810.666667 624.512v-177.066667a21.333333 21.333333 0 0 1 21.333333-21.333333M382.208 596.778667a21.333333 21.333333 0 0 1-21.333333-21.333334v-87.466666c0-81.664 66.986667-148.096 149.333333-148.096s149.333333 66.432 149.333333 148.053333v87.466667a21.333333 21.333333 0 0 1-42.666666 0v-87.466667c0-58.112-47.829333-105.386667-106.666667-105.386667s-106.666667 47.274667-106.666667 105.386667v87.466667a21.333333 21.333333 0 0 1-21.333333 21.333333"  horiz-adv-x="1024" />

    
    <glyph glyph-name="RectangleCopy65" unicode="&#59107;" d="M243.498667 565.717333v-405.162666A41.258667 41.258667 0 0 0 213.333333 199.978667V640.853333c0 23.04 18.688 41.813333 41.728 41.813334h440.96c19.797333 0 35.626667-14.165333 39.893334-32.597334H327.936a84.565333 84.565333 0 0 1-84.437333-84.394666M832 422.442667a21.333333 21.333333 0 0 1 21.333333 21.333333V565.632a84.266667 84.266667 0 0 1-73.685333 83.370667 84.266667 84.266667 0 0 1-83.626667 76.288H255.061333C208.554667 725.333333 170.666667 687.445333 170.666667 640.896v-440.917333c0-42.922667 32.213333-78.037333 73.642666-83.370667A84.266667 84.266667 0 0 1 327.936 40.32H768.853333A84.48 84.48 0 0 1 853.333333 124.8v191.018667a21.333333 21.333333 0 0 1-42.666666 0v-191.018667a41.813333 41.813333 0 0 0-41.813334-41.728H327.936a41.728 41.728 0 0 0-41.770667 41.728V565.717333a41.813333 41.813333 0 0 0 41.770667 41.728H768.853333a41.813333 41.813333 0 0 0 41.813334-41.728v-121.984a21.333333 21.333333 0 0 1 21.333333-21.333333M434.602667 536.32a21.333333 21.333333 0 0 1-21.333334-21.333333v-77.568c0-73.685333 60.458667-133.632 134.741334-133.632 74.325333 0 134.784 59.946667 134.784 133.632V514.986667a21.333333 21.333333 0 1 1-42.666667 0v-77.525334c0-50.176-41.301333-90.965333-92.16-90.965333-50.773333 0-92.032 40.789333-92.032 90.965333V514.986667a21.333333 21.333333 0 0 1-21.333333 21.333333"  horiz-adv-x="1024" />

    
    <glyph glyph-name="RectangleCopy66" unicode="&#59108;" d="M760.793852 725.202509H263.248809A92.615132 92.615132 0 0 1 170.718996 632.715357v-497.545043C170.718996 84.148804 212.227298 42.640502 263.248809 42.640502h269.654652a21.330063 21.330063 0 1 1 0 42.660125H263.248809A49.912347 49.912347 0 0 0 213.379122 135.170314V632.715357A49.912347 49.912347 0 0 0 263.248809 682.542384h497.545043A49.912347 49.912347 0 0 0 810.620878 632.715357v-313.210641a21.330063 21.330063 0 1 1 42.660126 0V632.715357A92.615132 92.615132 0 0 1 760.793852 725.202509M383.593022 596.795531a21.330063 21.330063 0 0 1-21.330062-21.330062v-87.453258c0-81.65148 66.976397-148.073295 149.310439-148.073295s149.310439 66.421815 149.310439 148.030635V575.465469a21.330063 21.330063 0 0 1-42.660126 0v-87.453258c0-58.103091-47.779341-105.37051-106.650313-105.370509-58.828313 0-106.650314 47.267419-106.650314 105.370509V575.465469a21.330063 21.330063 0 0 1-21.330063 21.330062M766.638289 93.917973c-22.012625 20.30622-27.899722 48.632543-28.198343 48.632543a19.410357 19.410357 0 0 1-0.511922 4.393993c-2.986209 13.56592-14.077841 23.633709-30.84327 25.297454a31.995094 31.995094 0 0 1-29.435487-20.178239 127.895056 127.895056 0 0 1-9.385227-53.581118c-22.183265 14.803064-36.261107 38.650074-36.261107 64.928711 0 22.481886 10.36641 43.939929 29.862088 60.150777 2.815568 2.346307 5.673797 4.735274 8.787986 7.124241 14.504443 10.835672 35.237264 26.363958 55.202202 58.145751 6.399019-5.929757 11.304933-12.627397 13.949861-19.538338 5.033895-13.224639 3.41281-28.752925-5.588477-47.73668-4.393993-11.816855-1.450444-25.169474 10.15311-36.346427 9.811829-6.996261 20.818141-9.385228 35.578545-1.834385 7.550842 4.692614 14.632423 9.854489 21.159422 15.570945 5.929757-10.835672 9.086607-22.993808 9.086607-35.535884 0-28.582284-16.722769-54.818261-43.555988-69.493344m34.981303 159.122267a21.628684 21.628684 0 0 1-15.442966-8.105423l-1.279804-1.663745a88.989022 88.989022 0 0 1-5.204535 41.252341C768.174053 314.385501 742.577978 331.15093 728.372156 338.445812a21.202082 21.202082 0 0 1-28.838245-9.385228c-18.770455-37.49825-38.564753-52.343974-54.60496-64.288809-3.754091-2.900889-7.252221-5.844437-11.688874-9.641188a118.97909 118.97909 0 0 1-43.854609-91.71927c0-58.998953 44.750472-109.849823 106.394352-120.856135A21.927304 21.927304 0 0 1 699.533911 42.213901h0.426602a21.500703 21.500703 0 0 1 21.714004 21.330062 21.458043 21.458043 0 0 1-5.289856 14.120502 65.142012 65.142012 0 0 0-5.119215 19.495677c8.617345-15.912227 21.586023-32.933617 40.527119-45.774314a21.330063 21.330063 0 0 1 19.794298-2.133007C820.944628 68.748499 852.854402 113.54163 852.854402 163.411317a117.315345 117.315345 0 0 1-34.853322 83.357885 21.841984 21.841984 0 0 1-16.338828 6.228378"  horiz-adv-x="1024" />

    
    <glyph glyph-name="RectangleCopy67" unicode="&#59109;" d="M760.832 725.333333H263.210667A92.629333 92.629333 0 0 1 170.666667 632.832V135.253333c0-51.029333 41.514667-92.544 92.544-92.544h225.237333a21.333333 21.333333 0 1 1 0 42.666667H263.210667A49.92 49.92 0 0 0 213.333333 135.253333V632.789333A49.92 49.92 0 0 0 263.210667 682.666667h497.621333A49.92 49.92 0 0 0 810.666667 632.832V319.573333a21.333333 21.333333 0 1 1 42.666666 0V632.832A92.629333 92.629333 0 0 1 760.832 725.333333M383.573333 596.906667a21.333333 21.333333 0 0 1-21.333333-21.333334v-87.466666c0-81.664 66.986667-148.096 149.333333-148.096s149.333333 66.432 149.333334 148.053333V575.573333a21.333333 21.333333 0 0 1-42.666667 0v-87.466666c0-58.112-47.786667-105.386667-106.666667-105.386667-58.837333 0-106.666667 47.274667-106.666666 105.386667V575.573333a21.333333 21.333333 0 0 1-21.333334 21.333334M814.933333 251.093333L651.946667 93.738667 589.141333 158.805333a21.333333 21.333333 0 0 1-30.72-29.653333l77.653334-80.426667a21.248 21.248 0 0 1 30.208-0.469333l178.346666 172.16a21.333333 21.333333 0 1 1-29.653333 30.72"  horiz-adv-x="1024" />

    
    <glyph glyph-name="RectangleCopy68" unicode="&#59110;" d="M373.333333 64a32 32 0 1 1 0-64 32 32 0 0 1 0 64M650.666667 64a32 32 0 1 1 0-64 32 32 0 0 1 0 64M828.202667 340.138667a21.333333 21.333333 0 0 1-27.178667-13.098667A169.130667 169.130667 0 0 0 641.877333 213.333333H290.56l-26.282667 341.333334h377.642667a169.130667 169.130667 0 0 0 159.232-113.92 21.333333 21.333333 0 0 1 40.277333 14.08A211.882667 211.882667 0 0 1 641.877333 597.333333H260.949333L255.914667 662.997333C255.829333 663.893333 255.317333 664.704 255.146667 665.557333 254.762667 667.434667 254.421333 669.141333 253.653333 670.72c-0.384 0.682667-0.853333 1.28-1.28 1.92a20.138667 20.138667 0 0 1-3.84 4.650667C247.893333 677.802667 247.168 678.101333 246.485333 678.613333a19.413333 19.413333 0 0 1-4.565333 2.56C240.426667 681.813333 238.933333 681.941333 237.397333 682.154667 236.458667 682.24 235.690667 682.666667 234.666667 682.666667h-42.666667a21.290667 21.290667 0 1 1 0-42.666667h22.912l41.173333-534.954667c0.085333-1.28 0.64-2.389333 0.981334-3.584 0.298667-1.28 0.426667-2.474667 0.938666-3.626666 0.682667-1.450667 1.706667-2.688 2.688-3.925334 0.64-0.853333 1.109333-1.792 1.877334-2.56 1.322667-1.28 2.858667-2.133333 4.437333-2.986666 0.768-0.426667 1.408-1.024 2.218667-1.365334a20.48 20.48 0 0 1 8.106666-1.706666h469.333334a21.333333 21.333333 0 0 1 0 42.666666H297.045333l-3.285333 42.666667h348.16a211.925333 211.925333 0 0 1 199.381333 142.336 21.333333 21.333333 0 0 1-13.098666 27.178667M641.792 490.666667H423.125333a21.333333 21.333333 0 0 1 0-42.666667h218.666667a21.333333 21.333333 0 0 1 0 42.666667M641.792 405.333333H423.125333a21.333333 21.333333 0 0 1 0-42.666666h218.666667a21.333333 21.333333 0 0 1 0 42.666666M641.792 318.250667H423.125333a21.333333 21.333333 0 0 1 0-42.666667h218.666667a21.333333 21.333333 0 0 1 0 42.666667"  horiz-adv-x="1024" />

    
    <glyph glyph-name="RectangleCopy69" unicode="&#59111;" d="M373.333333 64a32 32 0 1 1 0-64 32 32 0 0 1 0 64M650.666667 64a32 32 0 1 1 0-64 32 32 0 0 1 0 64M827.776 338.304a21.205333 21.205333 0 0 1-27.306667-12.8 169.514667 169.514667 0 0 0-158.634666-112.213333H290.56l-26.282667 341.333333h377.6a169.258667 169.258667 0 0 0 159.274667-113.834667 21.333333 21.333333 0 0 1 40.277333 14.037334A211.968 211.968 0 0 1 641.834667 597.333333H260.992L255.914667 662.997333c-0.085333 1.28-0.682667 2.346667-0.981334 3.541334-0.298667 1.237333-0.512 2.56-1.024 3.712a20.906667 20.906667 0 0 1-2.773333 4.096C250.496 675.157333 250.026667 676.053333 249.258667 676.693333a19.2 19.2 0 0 1-4.096 2.773334C244.224 680.064 243.370667 680.746667 242.346667 681.130667c-1.365333 0.512-2.858667 0.64-4.352 0.853333C236.842667 682.24 235.861333 682.666667 234.666667 682.666667h-42.666667a21.290667 21.290667 0 1 1 0-42.666667h22.912l41.130667-534.954667c0.128-1.365333 0.682667-2.56 1.024-3.84 0.298667-1.109333 0.469333-2.304 0.938666-3.328 0.682667-1.493333 1.706667-2.688 2.645334-3.968 0.682667-0.853333 1.152-1.792 1.92-2.56 1.28-1.194667 2.773333-2.005333 4.266666-2.858666 0.853333-0.469333 1.493333-1.152 2.389334-1.536A21.248 21.248 0 0 1 277.333333 85.333333h469.333334a21.333333 21.333333 0 0 1 0 42.666667H297.088l-3.285333 42.666667h348.032a212.266667 212.266667 0 0 1 198.741333 140.330666 21.333333 21.333333 0 0 1-12.8 27.306667M620.416 378.666667a21.333333 21.333333 0 0 1 0 42.666666h-62.549333l-0.085334 0.170667 56.832 53.632a21.333333 21.333333 0 0 1-29.226666 31.061333l-49.834667-47.018666-49.792 47.018666a21.333333 21.333333 0 0 1-29.269333-31.061333l56.96-53.802667h-63.701334a21.333333 21.333333 0 0 1 0-42.666666h65.792v-16h-65.792a21.333333 21.333333 0 0 1 0-42.666667h65.792v-44.458667a21.333333 21.333333 0 1 1 42.666667 0V320h62.208a21.333333 21.333333 0 0 1 0 42.666667h-62.165333v16h62.165333z"  horiz-adv-x="1024" />

    
    <glyph glyph-name="RectangleCopy70" unicode="&#59112;" d="M373.333333 64a32 32 0 1 1 0-64 32 32 0 0 1 0 64M704 213.333333a64 64 0 1 1 0.042667-128.042666A64 64 0 0 1 704 213.333333M704 42.666667a106.794667 106.794667 0 0 0-106.666667 106.666666c0 58.794667 47.829333 106.666667 106.666667 106.666667s106.666667-47.872 106.666667-106.666667-47.829333-106.666667-106.666667-106.666666m0 256c-82.346667 0-149.333333-66.986667-149.333333-149.333334s66.986667-149.333333 149.333333-149.333333 149.333333 66.986667 149.333333 149.333333-66.986667 149.333333-149.333333 149.333334M490.666667 169.770667a21.333333 21.333333 0 0 1 0 42.666666H290.56l-26.368 343.125334h374.016a171.733333 171.733333 0 0 0 167.338667-209.536 21.333333 21.333333 0 1 1 41.642666-9.344A213.077333 213.077333 0 0 1 852.437333 384a214.442667 214.442667 0 0 1-214.229333 214.229333H260.906667l-4.992 64.768c-0.085333 0.896-0.554667 1.621333-0.768 2.474667a20.48 20.48 0 0 1-1.578667 5.290667c-0.256 0.554667-0.682667 0.981333-1.024 1.536a21.76 21.76 0 0 1-4.181333 5.077333c-0.469333 0.384-0.981333 0.597333-1.450667 0.981333a21.546667 21.546667 0 0 1-5.12 2.858667c-1.408 0.554667-2.858667 0.682667-4.309333 0.896C236.501333 682.24 235.648 682.666667 234.666667 682.666667h-42.666667a21.333333 21.333333 0 0 1 0-42.666667h22.912l41.173333-534.997333c0.085333-1.28 0.64-2.346667 0.981334-3.584 0.298667-1.194667 0.469333-2.474667 0.981333-3.584 0.64-1.493333 1.664-2.688 2.645333-3.968 0.64-0.810667 1.109333-1.792 1.877334-2.517334 1.322667-1.237333 2.901333-2.090667 4.437333-2.986666 0.768-0.426667 1.408-1.066667 2.218667-1.408a21.248 21.248 0 0 1 8.064-1.621334H490.666667a21.333333 21.333333 0 0 1 0 42.666667H297.088l-3.242667 41.770667H490.666667z"  horiz-adv-x="1024" />

    
    <glyph glyph-name="RectangleCopy71" unicode="&#59113;" d="M373.333333 106.666667a32 32 0 1 1 0-64 32 32 0 0 1 0 64M650.666667 106.666667a32 32 0 1 1 0-64 32 32 0 0 1 0 64M828.245333 382.762667a21.333333 21.333333 0 0 1-27.178666-13.056A169.258667 169.258667 0 0 0 641.92 256H290.474667l-26.282667 341.333333h377.642667a169.216 169.216 0 0 0 159.146666-113.664 21.418667 21.418667 0 0 1 27.178667-13.056 21.333333 21.333333 0 0 1 13.098667 27.178667A212.010667 212.010667 0 0 1 641.877333 640H260.949333L255.914667 705.621333C255.829333 706.56 255.36 707.328 255.146667 708.181333A21.376 21.376 0 0 1 253.568 713.386667C253.269333 713.941333 252.885333 714.410667 252.586667 714.965333a21.077333 21.077333 0 0 1-4.224 5.12C247.893333 720.384 247.466667 720.554667 247.04 720.896a21.205333 21.205333 0 0 1-5.290667 2.986667C240.341333 724.394667 238.933333 724.48 237.482667 724.736 236.544 724.906667 235.648 725.333333 234.666667 725.333333h-42.666667a21.333333 21.333333 0 0 1 0-42.666666h22.912l41.173333-534.997334c0.085333-1.28 0.64-2.346667 0.981334-3.584 0.298667-1.194667 0.426667-2.474667 0.938666-3.584 0.682667-1.493333 1.706667-2.688 2.688-3.968 0.64-0.853333 1.109333-1.792 1.877334-2.517333 1.322667-1.237333 2.858667-2.133333 4.437333-2.986667 0.768-0.426667 1.408-1.066667 2.218667-1.408A21.248 21.248 0 0 1 277.333333 128h469.333334a21.333333 21.333333 0 1 1 0 42.666667H297.045333l-3.242666 42.666666h348.074666a212.053333 212.053333 0 0 1 199.466667 142.250667 21.333333 21.333333 0 0 1-13.098667 27.178667M362.666667 448a21.333333 21.333333 0 0 1 0-42.666667h42.666666a21.333333 21.333333 0 0 1 0 42.666667h-42.666666zM492.458667 448a21.333333 21.333333 0 0 1 0-42.666667h42.666666a21.333333 21.333333 0 0 1 0 42.666667h-42.666666zM620.458667 448a21.333333 21.333333 0 0 1 0-42.666667h42.666666a21.333333 21.333333 0 0 1 0 42.666667h-42.666666z"  horiz-adv-x="1024" />

    
    <glyph glyph-name="RectangleCopy72" unicode="&#59114;" d="M382.738347 292.266667a21.333333 21.333333 0 0 1 0-42.666667h131.114666v-93.824a21.333333 21.333333 0 0 1 42.666667 0V249.6h124.885333a21.333333 21.333333 0 0 1 0 42.666667h-124.928v59.989333h124.885334a21.333333 21.333333 0 0 1 0 42.666667h-124.885334v23.936l103.765334 97.877333a21.333333 21.333333 0 0 1-29.269334 31.061333l-98.133333-92.586666-98.133333 92.586666a21.333333 21.333333 0 1 1-29.312-31.061333l108.416-102.272v-19.541333H382.69568a21.333333 21.333333 0 1 1 0-42.666667h131.114667v-59.989333H382.69568zM827.026347 565.888a360.874667 360.874667 0 0 1-592.554667 9.216V623.189333a20.138667 20.138667 0 0 1-40.32 0v-118.784c0-3.626667 1.194667-6.826667 2.858667-9.770666a20.053333 20.053333 0 0 1 10.026666-10.325334c10.24-4.437333 22.058667 0 26.624 10.24A321.109333 321.109333 0 0 0 527.20768 685.056a321.109333 321.109333 0 0 0 321.152-321.152c0-177.152-144.085333-321.194667-321.152-321.194667A320.597333 320.597333 0 0 0 211.005013 307.157333a20.138667 20.138667 0 1 1-39.68-7.082666A360.874667 360.874667 0 0 1 527.165013 2.389333c199.381333 0 361.514667 162.133333 361.514667 361.514667 0 72.32-21.333333 142.165333-61.653333 201.941333"  horiz-adv-x="1024" />

    
    <glyph glyph-name="RectangleCopy73" unicode="&#59115;" d="M488.874667 42.666667H296.362667C274.133333 42.666667 256 61.952 256 85.674667V596.992C256 620.714667 274.133333 640 296.362667 640h107.178666a20.650667 20.650667 0 0 1 12.458667 4.48 21.077333 21.077333 0 0 1 10.922667 14.037333A85.76 85.76 0 0 0 510.208 725.333333c40.448 0 75.605333-28.714667 83.626667-68.266666a21.333333 21.333333 0 0 1 20.864-17.066667c0.896 0 1.792 0.170667 2.688 0.256 0.426667-0.042667 0.810667-0.256 1.28-0.256h108.970666c22.229333 0 40.362667-19.285333 40.362667-43.008v-228.992a21.333333 21.333333 0 0 1 42.666667 0V596.992C810.666667 644.224 773.418667 682.666667 727.637333 682.666667H630.613333a128.298667 128.298667 0 0 1-120.405333 85.333333A128.512 128.512 0 0 1 389.973333 682.666667H296.362667C250.581333 682.666667 213.333333 644.224 213.333333 596.992v-511.317333C213.333333 38.442667 250.581333 0 296.362667 0h192.512a21.333333 21.333333 0 0 1 0 42.666667M704 213.333333a64 64 0 1 1 0.042667-128 64 64 0 0 1-0.042667 128M704 42.666667a106.794667 106.794667 0 0 0-106.666667 106.666666c0 58.794667 47.829333 106.666667 106.666667 106.666667s106.666667-47.872 106.666667-106.666667-47.829333-106.666667-106.666667-106.666666m0 256c-15.616 0-30.378667-3.072-44.544-7.552h-124.8v59.989333h124.885333a21.333333 21.333333 0 0 1 0 42.666667h-124.885333v23.936l103.765333 97.877333a21.333333 21.333333 0 0 1-29.269333 31.061333l-98.133333-92.629333-98.176 92.629333a21.376 21.376 0 0 1-29.269334-31.061333l108.416-102.272v-19.541333H360.874667a21.333333 21.333333 0 1 1 0-42.666667h131.114666v-59.989333H360.874667a21.333333 21.333333 0 1 1 0-42.666667h131.114666v-93.781333a21.333333 21.333333 0 0 1 42.666667 0v93.781333h58.496A148.181333 148.181333 0 0 1 554.666667 149.333333c0-82.346667 66.986667-149.333333 149.333333-149.333333s149.333333 66.986667 149.333333 149.333333-66.986667 149.333333-149.333333 149.333334"  horiz-adv-x="1024" />

    
    <glyph glyph-name="RectangleCopy74" unicode="&#59116;" d="M789.333333 384a21.333333 21.333333 0 0 1 21.333334 21.333333V596.992C810.666667 644.224 773.418667 682.666667 727.637333 682.666667H630.613333a128.298667 128.298667 0 0 1-120.405333 85.333333 128.682667 128.682667 0 0 1-120.277333-85.333333H296.32C250.581333 682.666667 213.333333 644.224 213.333333 596.992v-511.317333C213.333333 38.442667 250.581333 0 296.32 0h431.317333C773.418667 0 810.666667 38.442667 810.666667 85.674667V277.333333a21.333333 21.333333 0 0 1-42.666667 0v-191.658666c0-23.722667-18.133333-43.008-40.362667-43.008H296.32C274.090667 42.666667 256 61.952 256 85.674667V596.992C256 620.714667 274.090667 640 296.32 640h107.178667c4.693333 0 8.832 1.834667 12.330666 4.394667a20.992 20.992 0 0 1 11.050667 14.122666A85.845333 85.845333 0 0 0 510.208 725.333333c40.448 0 75.605333-28.714667 83.626667-68.266666a21.333333 21.333333 0 0 1 20.864-17.066667c0.896 0 1.792 0.170667 2.688 0.256 0.426667-0.042667 0.810667-0.256 1.28-0.256h108.970666c22.229333 0 40.362667-19.285333 40.362667-43.008V405.333333a21.333333 21.333333 0 0 1 21.333333-21.333333M597.333333 467.541333a85.333333 85.333333 0 1 1-170.666666 0c0-39.68 27.264-72.789333 64-82.304v-178.432A42.154667 42.154667 0 0 1 469.333333 170.666667a42.666667 42.666667 0 1 1 85.333334 0 41.941333 41.941333 0 0 1-21.333334 36.096V385.28a85.12 85.12 0 0 1 64 82.346667"  horiz-adv-x="1024" />

    
    </font>
</defs>
</svg>
